<?xml version="1.0" encoding="UTF-8"?>
<svg version="1.1" xmlns="http://www.w3.org/2000/svg" width="600" height="600">
<path d="M0 0 C1.08007324 0.19835449 2.16014648 0.39670898 3.27294922 0.60107422 C43.20187492 8.20456757 80.89033395 24.40224478 114.8125 46.625 C115.44760498 47.0389502 116.08270996 47.45290039 116.73706055 47.87939453 C118.19719886 48.86387388 119.60544573 49.92462943 121 51 C121 51.66 121 52.32 121 53 C121.68449219 53.226875 122.36898438 53.45375 123.07421875 53.6875 C126.74518186 55.33428719 129.65392227 57.53511214 132.8125 60 C133.40998047 60.45117188 134.00746094 60.90234375 134.62304688 61.3671875 C136.12347581 62.52637603 137.56724504 63.75813919 139 65 C139 65.66 139 66.32 139 67 C139.86625 67.4021875 139.86625 67.4021875 140.75 67.8125 C143.05550043 69.02929189 145.02056192 70.30333879 147 72 C147 72.66 147 73.32 147 74 C147.56372314 74.23920166 148.12744629 74.47840332 148.70825195 74.72485352 C151.49438503 76.27507969 153.40967665 78.15040728 155.66796875 80.40234375 C157.00891602 81.73942383 157.00891602 81.73942383 158.37695312 83.10351562 C159.76817383 84.50633789 159.76817383 84.50633789 161.1875 85.9375 C162.09564453 86.83791016 163.00378906 87.73832031 163.93945312 88.66601562 C170.05531223 94.79938614 175.6475755 101.19314809 181 108 C181.53858643 108.67925537 182.07717285 109.35851074 182.63208008 110.05834961 C213.24146438 149.06869307 232.66116462 194.47326671 242 243 C242.17644043 243.86625 242.35288086 244.7325 242.53466797 245.625 C245.25497846 259.08366199 245.34291499 272.30274433 245 286 C244.67 286 244.34 286 244 286 C243.34 278.74 242.68 271.48 242 264 C218.24 263.67 194.48 263.34 170 263 C168.68 255.74 167.36 248.48 166 241 C165.03466161 236.97055269 164.06809908 233.07411392 162.875 229.125 C162.43559082 227.65401855 162.43559082 227.65401855 161.98730469 226.15332031 C152.87453647 196.67525135 138.2038894 169.34590475 118 146 C117.31808594 145.20722656 116.63617188 144.41445312 115.93359375 143.59765625 C105.29034826 131.50395005 93.98838322 120.53644726 81 111 C79.9996875 110.25492187 78.999375 109.50984375 77.96875 108.7421875 C48.66458193 87.67037593 13.7713063 73.16103517 -22.08984375 68.43359375 C-25 68 -25 68 -26 67 C-26.09417773 64.91380978 -26.11742878 62.82439523 -26.11352539 60.73608398 C-26.11367142 60.08244873 -26.11381744 59.42881348 -26.1139679 58.75537109 C-26.11326883 56.58557872 -26.10547678 54.41587121 -26.09765625 52.24609375 C-26.09579205 50.74536689 -26.09436816 49.24463943 -26.09336853 47.74391174 C-26.08954352 43.78681774 -26.0797134 39.82976022 -26.06866455 35.87268066 C-26.05665533 31.1286825 -26.05204811 26.38467215 -26.04621124 21.64066315 C-26.03650162 14.42708336 -26.01734498 7.21358369 -26 0 C-45.14 0 -64.28 0 -84 0 C-83.98839844 4.82496094 -83.97679687 9.64992188 -83.96484375 14.62109375 C-83.95973683 17.66992321 -83.95492305 20.71874743 -83.95117188 23.76757812 C-83.94518404 28.61142059 -83.93808535 33.45524422 -83.92456055 38.29907227 C-83.91372957 42.20235971 -83.90772272 46.10562699 -83.90512276 50.0089283 C-83.90326889 51.50133647 -83.899649 52.99374348 -83.89426994 54.48614311 C-83.88705669 56.56948139 -83.88600917 58.65273531 -83.88647461 60.73608398 C-83.884254 61.92411118 -83.88203339 63.11213837 -83.87974548 64.33616638 C-84 67 -84 67 -85 68 C-86.38226321 68.29606533 -87.7757118 68.54028117 -89.171875 68.76171875 C-108.90458864 72.0318659 -127.58735733 77.15625621 -146 85 C-146.68980957 85.29068359 -147.37961914 85.58136719 -148.09033203 85.88085938 C-165.26423306 93.2220032 -181.49146583 103.25203099 -196 115 C-196.99386719 115.79148437 -197.98773438 116.58296875 -199.01171875 117.3984375 C-213.27496166 128.97154689 -226.22671175 142.11754138 -237 157 C-237.76441406 158.04285156 -238.52882813 159.08570313 -239.31640625 160.16015625 C-261.32427045 191.04771522 -274.24710133 225.60615867 -280 263 C-316.135 263.495 -316.135 263.495 -353 264 C-353.33 265.65 -353.66 267.3 -354 269 C-354.33 269 -354.66 269 -355 269 C-355.27443807 259.99990987 -354.59476782 251.59338799 -352.9375 242.75 C-352.60359253 240.93798096 -352.60359253 240.93798096 -352.26293945 239.08935547 C-342.976706 190.61604005 -321.96625395 145.37938748 -291 107 C-290.57203125 106.46761719 -290.1440625 105.93523437 -289.703125 105.38671875 C-283.19850107 97.37072632 -276.14709965 89.94821084 -268.875 82.625 C-268.03267822 81.77341309 -267.19035645 80.92182617 -266.32250977 80.04443359 C-265.53287842 79.25891113 -264.74324707 78.47338867 -263.9296875 77.6640625 C-262.86596924 76.60372803 -262.86596924 76.60372803 -261.78076172 75.52197266 C-260 74 -260 74 -258 74 C-257.7525 73.401875 -257.505 72.80375 -257.25 72.1875 C-255.81927475 69.68373081 -254.4308418 68.51927612 -252 67 C-251.34 67 -250.68 67 -250 67 C-249.505 65.515 -249.505 65.515 -249 64 C-247.54125977 62.6496582 -247.54125977 62.6496582 -245.69140625 61.30078125 C-245.02689453 60.81416016 -244.36238281 60.32753906 -243.67773438 59.82617188 C-242.97970703 59.32666016 -242.28167969 58.82714844 -241.5625 58.3125 C-240.86833984 57.80138672 -240.17417969 57.29027344 -239.45898438 56.76367188 C-234.26823264 53 -234.26823264 53 -232 53 C-232 52.34 -232 51.68 -232 51 C-229.63876874 49.27317556 -227.28172587 47.68560088 -224.8125 46.125 C-223.66986694 45.39796875 -223.66986694 45.39796875 -222.50415039 44.65625 C-188.0808948 22.97012028 -151.11662534 7.36738263 -111 0 C-109.8980127 -0.20737793 -108.79602539 -0.41475586 -107.66064453 -0.62841797 C-72.70460717 -6.90868885 -34.87985476 -6.56387967 0 0 Z " fill="#FEFEFE" transform="translate(355,5)"/>
<path d="M0 0 C36.63 0.495 36.63 0.495 74 1 C76.23672971 8.828554 76.23672971 8.828554 76.859375 12.390625 C82.9983914 46.00970807 96.44154264 78.59366427 117 106 C117.44698242 106.60102539 117.89396484 107.20205078 118.35449219 107.82128906 C137.36670282 133.21196633 160.51863331 153.23091571 188 169 C188.70237793 169.40347656 189.40475586 169.80695313 190.12841797 170.22265625 C213.89035464 183.70239753 239.6242532 191.37647825 266.40625 196.2734375 C270 197 270 197 271 198 C271.09436529 200.23929886 271.11742327 202.4816175 271.11352539 204.72290039 C271.11367142 205.4253035 271.11381744 206.1277066 271.1139679 206.85139465 C271.11326872 209.18351278 271.10547617 211.515552 271.09765625 213.84765625 C271.09579208 215.46048438 271.09436818 217.07331307 271.09336853 218.68614197 C271.08954323 222.93915357 271.07971285 227.19213124 271.06866455 231.44512939 C271.05845069 235.7817743 271.05387096 240.11842467 271.04882812 244.45507812 C271.03809059 252.97006769 271.02101403 261.48502963 271 270 C271.99 270.33 272.98 270.66 274 271 C274 271.33 274 271.66 274 272 C223.75908308 273.30428133 170.34469738 249.33749767 129.1875 222.375 C128.55239502 221.9610498 127.91729004 221.54709961 127.26293945 221.12060547 C125.80280114 220.13612612 124.39455427 219.07537057 123 218 C123 217.34 123 216.68 123 216 C121.97326172 215.6596875 121.97326172 215.6596875 120.92578125 215.3125 C117.25481814 213.66571281 114.34607773 211.46488786 111.1875 209 C110.59001953 208.54882812 109.99253906 208.09765625 109.37695312 207.6328125 C107.87652419 206.47362397 106.43275496 205.24186081 105 204 C105 203.34 105 202.68 105 202 C104.4225 201.731875 103.845 201.46375 103.25 201.1875 C100.94449957 199.97070811 98.97943808 198.69666121 97 197 C97 196.34 97 195.68 97 195 C96.15441528 194.64119751 96.15441528 194.64119751 95.29174805 194.27514648 C92.50561497 192.72492031 90.59032335 190.84959272 88.33203125 188.59765625 C87.43806641 187.70626953 86.54410156 186.81488281 85.62304688 185.89648438 C84.69556641 184.96126953 83.76808594 184.02605469 82.8125 183.0625 C81.90435547 182.16208984 80.99621094 181.26167969 80.06054688 180.33398438 C73.94468777 174.20061386 68.3524245 167.80685191 63 161 C62.19212036 159.98111694 62.19212036 159.98111694 61.36791992 158.94165039 C30.90050205 120.11223704 10.94006522 74.45361209 2 26 C1.80277344 24.94184082 1.60554687 23.88368164 1.40234375 22.79345703 C1.21800781 21.71821777 1.03367188 20.64297852 0.84375 19.53515625 C0.68068359 18.59164307 0.51761719 17.64812988 0.34960938 16.67602539 C-0.17679078 11.14110418 0 5.55989658 0 0 Z " fill="#FEFEFE" transform="translate(0,326)"/>
<path d="M0 0 C0.33 0 0.66 0 1 0 C3.47844727 64.23309181 -24.17437305 129.64035933 -64 179 C-64.42796875 179.53238281 -64.8559375 180.06476563 -65.296875 180.61328125 C-71.80149893 188.62927368 -78.85290035 196.05178916 -86.125 203.375 C-87.38848267 204.65238037 -87.38848267 204.65238037 -88.67749023 205.95556641 C-89.46712158 206.74108887 -90.25675293 207.52661133 -91.0703125 208.3359375 C-91.77945801 209.04282715 -92.48860352 209.7497168 -93.21923828 210.47802734 C-95 212 -95 212 -97 212 C-97.2475 212.598125 -97.495 213.19625 -97.75 213.8125 C-99.18072525 216.31626919 -100.5691582 217.48072388 -103 219 C-103.66 219 -104.32 219 -105 219 C-105.33 219.99 -105.66 220.98 -106 222 C-107.45874023 223.3503418 -107.45874023 223.3503418 -109.30859375 224.69921875 C-109.97310547 225.18583984 -110.63761719 225.67246094 -111.32226562 226.17382812 C-112.02029297 226.67333984 -112.71832031 227.17285156 -113.4375 227.6875 C-114.47874023 228.45416992 -114.47874023 228.45416992 -115.54101562 229.23632812 C-120.73176736 233 -120.73176736 233 -123 233 C-123 233.66 -123 234.32 -123 235 C-125.36123126 236.72682444 -127.71827413 238.31439912 -130.1875 239.875 C-130.94925537 240.3596875 -131.71101074 240.844375 -132.49584961 241.34375 C-173.3168271 267.06034763 -224.68086887 289.8868575 -274 289 C-273.67 288.34 -273.34 287.68 -273 287 C-272.01 287 -271.02 287 -270 287 C-270 263.24 -270 239.48 -270 215 C-266.64463869 213.32231935 -264.75085206 212.63851798 -261.1953125 212.0625 C-207.33275244 202.68940271 -157.05125581 175.31132193 -123 132 C-122.22011719 131.03707031 -121.44023437 130.07414063 -120.63671875 129.08203125 C-96.55962742 98.78406464 -80.95725157 62.34737741 -74.89941406 24.1652832 C-74.09107946 19.09107946 -74.09107946 19.09107946 -73 18 C-70.76070114 17.90563471 -68.5183825 17.88257673 -66.27709961 17.88647461 C-65.5746965 17.88632858 -64.8722934 17.88618256 -64.14860535 17.8860321 C-61.81648722 17.88673128 -59.484448 17.89452383 -57.15234375 17.90234375 C-55.53951562 17.90420792 -53.92668693 17.90563182 -52.31385803 17.90663147 C-48.06084643 17.91045677 -43.80786876 17.92028715 -39.55487061 17.93133545 C-35.2182257 17.94154931 -30.88157533 17.94612904 -26.54492188 17.95117188 C-18.02993058 17.96190941 -9.51497341 17.9795063 -1 18 C-0.67 12.06 -0.34 6.12 0 0 Z " fill="#FEFEFE" transform="translate(599,309)"/>
<path d="M0 0 C0.09275987 8.51892153 0.16379482 17.03763138 0.20724869 25.5569334 C0.22810652 29.51299083 0.25639036 33.46870225 0.30175781 37.42456055 C0.34528121 41.24360864 0.36915069 45.06232433 0.37950897 48.88160133 C0.3868888 50.33726038 0.4013002 51.79290162 0.42292023 53.24841881 C0.45204276 55.29060267 0.45595264 57.33142054 0.45410156 59.3737793 C0.46298401 60.53515915 0.47186646 61.696539 0.48101807 62.89311218 C-0.10185142 66.65785665 -1.50677965 68.18750884 -4 71 C-6.20862131 77.45354775 -6.28007283 83.58449817 -6.2734375 90.359375 C-6.29370768 92.54818237 -6.31455807 94.73698443 -6.3359375 96.92578125 C-6.35861423 100.35144583 -6.37504565 103.77690026 -6.38085938 107.20263672 C-6.39035361 110.52609425 -6.42406847 113.84862446 -6.4609375 117.171875 C-6.45589203 118.19794861 -6.45084656 119.22402222 -6.44564819 120.28118896 C-6.49995852 124.19128511 -6.55908005 127.13312145 -8.34545898 130.64526367 C-12.73589527 132.88590848 -17.15703962 132.5419261 -22.01171875 132.50390625 C-23.63591484 132.5180381 -23.63591484 132.5180381 -25.29292297 132.53245544 C-28.75797353 132.56114658 -32.2223402 132.5641834 -35.6875 132.5625 C-39.13470778 132.56611621 -42.58141443 132.57577773 -46.02851868 132.60325623 C-48.1721623 132.61993994 -50.31596993 132.62300352 -52.4596405 132.61024475 C-57.0708344 132.64238891 -60.94883562 132.79905267 -65.25878906 134.50488281 C-71.76396379 136.94322914 -78.69231013 136.36915656 -85.53515625 136.29296875 C-87.02444529 136.28736306 -88.51373992 136.28309757 -90.0030365 136.28010559 C-93.89439573 136.26873325 -97.78541101 136.23933328 -101.67663574 136.20599365 C-105.65872548 136.17512711 -109.6408716 136.16156507 -113.62304688 136.14648438 C-121.4155202 136.11445488 -129.20771163 136.06335272 -137 136 C-136.53135221 133.6089384 -136.060211 131.21841288 -135.58764648 128.828125 C-135.45631065 128.15668457 -135.32497482 127.48524414 -135.18965912 126.79345703 C-130.56445923 103.46674894 -119.65705419 81.63226189 -105 63 C-104.29746094 62.07703125 -103.59492188 61.1540625 -102.87109375 60.203125 C-98.49424641 54.62526431 -93.71309152 49.49101745 -88.75 44.4375 C-88.15928711 43.8290625 -87.56857422 43.220625 -86.95996094 42.59375 C-83.84524664 39.48432384 -81.34011416 37.24819073 -77 36 C-77 35.34 -77 34.68 -77 34 C-75.35 33.34 -73.7 32.68 -72 32 C-72 31.34 -72 30.68 -72 30 C-70.6015625 28.89013672 -70.6015625 28.89013672 -68.625 27.6796875 C-67.53034424 27.00619263 -67.53034424 27.00619263 -66.41357422 26.3190918 C-65.21885498 25.60426636 -65.21885498 25.60426636 -64 24.875 C-63.18418457 24.38362549 -62.36836914 23.89225098 -61.52783203 23.38598633 C-44.19180711 13.07204242 -20.71889137 0 0 0 Z " fill="#FFFFFF" transform="translate(271,132)"/>
<path d="M0 0 C12.73327674 1.99498605 12.73327674 1.99498605 17.859375 3.6640625 C18.82198242 3.97738525 19.78458984 4.29070801 20.77636719 4.61352539 C22.24831543 5.11420532 22.24831543 5.11420532 23.75 5.625 C24.7905957 5.97618896 25.83119141 6.32737793 26.90332031 6.68920898 C40.13221457 11.27842895 52.04122653 17.74689775 64 25 C64.83015625 25.48726562 65.6603125 25.97453125 66.515625 26.4765625 C68.38058499 27.59162599 70.19739873 28.78671068 72 30 C72 30.66 72 31.32 72 32 C73.65 32.66 75.3 33.32 77 34 C77 34.66 77 35.32 77 36 C78.11822144 36.3880481 78.11822144 36.3880481 79.2590332 36.78393555 C82.09163442 38.04065477 83.67285253 39.28628169 85.85546875 41.45703125 C86.55526855 42.15046631 87.25506836 42.84390137 87.97607422 43.55834961 C88.70584473 44.30221924 89.43561523 45.04608887 90.1875 45.8125 C91.32469482 46.96600952 91.32469482 46.96600952 92.48486328 48.14282227 C110.07502322 66.23110064 123.14867066 88.26901965 131.3125 112.125 C131.54300049 112.79208984 131.77350098 113.45917969 132.01098633 114.14648438 C133.57240962 118.95862696 134.61304438 123.83988051 135.58276367 128.80029297 C135.71987511 129.49404526 135.85698654 130.18779755 135.99825287 130.90257263 C136.33376785 132.60140002 136.66710479 134.30065731 137 136 C128.41975266 136.06975897 119.83962542 136.12294189 111.25916386 136.15543652 C107.27415453 136.17103868 103.28934039 136.19217616 99.30444336 136.22631836 C95.45297282 136.25910783 91.60168908 136.27689392 87.75008965 136.28463173 C86.28659567 136.29014033 84.82311098 136.30089662 83.35969734 136.31719017 C76.22922734 136.3933647 69.88478846 136.33580032 63.17982483 133.68205261 C58.69826008 132.27980097 53.97789575 132.60120835 49.32421875 132.62890625 C47.09309729 132.61154171 44.86197752 132.59395717 42.63085938 132.57617188 C39.14376884 132.56606151 35.6567824 132.56251492 32.16967773 132.56420898 C28.78337855 132.5606497 25.39787649 132.53336863 22.01171875 132.50390625 C20.44450325 132.51618004 20.44450325 132.51618004 18.84562683 132.52870178 C11.89531108 132.45691908 11.89531108 132.45691908 8.34545898 130.64526367 C6.1381303 126.30550567 6.43734496 121.96977804 6.4609375 117.171875 C6.44914459 116.10890198 6.43735168 115.04592896 6.42520142 113.95074463 C6.38989035 110.55034832 6.38077101 107.15056471 6.375 103.75 C6.35861644 100.36390273 6.33644832 96.9780785 6.30337524 93.59210205 C6.28387412 91.48633827 6.27439626 89.38045023 6.27645874 87.27459717 C6.36584736 77.2843232 6.36584736 77.2843232 1.95132446 68.6889801 C-0.4867895 65.32919035 -0.48559429 63.49145297 -0.45410156 59.3737793 C-0.45468567 58.72931351 -0.45526978 58.08484772 -0.45587158 57.42085266 C-0.45309954 55.30474728 -0.42205361 53.19007595 -0.390625 51.07421875 C-0.38315937 49.60163645 -0.37746796 48.12904417 -0.37347412 46.65644836 C-0.35824282 42.79121194 -0.31898363 38.92658215 -0.2746582 35.06158447 C-0.23365082 31.11340541 -0.2154515 27.16512778 -0.1953125 23.21679688 C-0.15248605 15.47758881 -0.08426624 7.73887959 0 0 Z " fill="#FFFFFF" transform="translate(329,132)"/>
<path d="M0 0 C1.09476151 0.00888245 2.18952301 0.01776489 3.31745911 0.0269165 C5.17904915 0.02736969 5.17904915 0.02736969 7.07824707 0.02783203 C8.43248637 0.04825853 9.78671913 0.06912252 11.14094543 0.09039307 C12.52670476 0.09785469 13.91247464 0.103548 15.29824829 0.10754395 C18.94323427 0.12280684 22.58758131 0.16209305 26.23231506 0.20635986 C29.95242163 0.24729917 33.67263159 0.26555202 37.39289856 0.28570557 C44.6907157 0.32858774 51.98800662 0.39684567 59.28547668 0.48101807 C57.29049064 13.21429481 57.29049064 13.21429481 55.62141418 18.34039307 C55.30809143 19.30300049 54.99476868 20.26560791 54.67195129 21.25738525 C54.33816467 22.23868408 54.00437805 23.21998291 53.66047668 24.23101807 C53.30928772 25.27161377 52.95809875 26.31220947 52.5962677 27.38433838 C49.54164296 36.18960551 45.81040944 44.34713084 41.28547668 52.48101807 C40.42309387 54.07429932 40.42309387 54.07429932 39.54328918 55.69976807 C27.64965105 76.96581229 10.43896746 95.83147584 -9.71452332 109.48101807 C-11.00423035 110.35500244 -11.00423035 110.35500244 -12.31999207 111.24664307 C-30.54378259 123.19843479 -55.32830063 136.84270024 -77.71452332 136.48101807 C-77.80723984 128.59674941 -77.87829591 120.71270884 -77.921772 112.82802963 C-77.94263941 109.16675295 -77.97094037 105.50584948 -78.01628113 101.8447876 C-78.05977094 98.31103096 -78.0836668 94.77763308 -78.09403229 91.24362946 C-78.10501068 89.24050555 -78.13623208 87.2375258 -78.16770935 85.23461914 C-78.16801147 84.0136554 -78.1683136 82.79269165 -78.16862488 81.534729 C-78.17750732 80.459953 -78.18638977 79.385177 -78.19554138 78.27783203 C-77.59613398 74.79265939 -76.29451525 73.80187905 -73.71452332 71.48101807 C-71.47280029 65.05185038 -71.44871621 58.91391118 -71.47624207 52.15679932 C-71.46083578 49.97254822 -71.44453316 47.78830329 -71.42741394 45.60406494 C-71.410912 42.18717755 -71.40207019 38.77074512 -71.40910339 35.3538208 C-71.41171812 32.03762963 -71.38365989 28.72280764 -71.35124207 25.40679932 C-71.3665522 23.87543083 -71.3665522 23.87543083 -71.38217163 22.31312561 C-71.3216444 17.93082942 -71.11574311 15.18256771 -68.91447449 11.33355713 C-64.00673565 8.49233318 -59.45183823 8.83197723 -53.87858582 8.91461182 C-52.72587189 8.9089772 -51.57315796 8.90334259 -50.38551331 8.89753723 C-46.70310339 8.8810783 -43.02189166 8.89663356 -39.33952332 8.91851807 C-35.66440676 8.93512686 -31.99008568 8.94417935 -28.31495667 8.92878723 C-26.02998092 8.91952982 -23.74483708 8.9285953 -21.46003723 8.9584198 C-14.97669826 8.93619582 -10.93686752 8.44149149 -5.71452332 4.48101807 C-5.06795525 3.43629585 -5.06795525 3.43629585 -4.4083252 2.37046814 C-2.71452332 0.48101807 -2.71452332 0.48101807 0 0 Z " fill="#FFFFFF" transform="translate(406.7145233154297,326.51898193359375)"/>
<path d="M0 0 C8.01461979 -0.1158896 16.02888913 -0.20471166 24.04413986 -0.25906086 C27.7660559 -0.28514706 31.48739843 -0.32052492 35.20898438 -0.37719727 C38.80111569 -0.43155547 42.39269572 -0.4614279 45.9852066 -0.47438622 C47.35520355 -0.48361959 48.72517056 -0.50165106 50.09493256 -0.52865028 C52.01448599 -0.56497896 53.93459511 -0.56704269 55.85449219 -0.56762695 C56.94703308 -0.57873001 58.03957397 -0.58983307 59.16522217 -0.60127258 C62.9491092 0.20131149 63.85553435 1.88218894 66 5 C71.54363796 8.97296761 77.46173222 8.39059206 84.00390625 8.3359375 C86.37695589 8.34844448 88.75000278 8.36148135 91.12304688 8.375 C94.85157905 8.37893746 98.57984274 8.37493218 102.30834961 8.36035156 C105.91561011 8.3517951 109.5217449 8.37343505 113.12890625 8.3984375 C114.2435878 8.38509369 115.35826935 8.37174988 116.50672913 8.35800171 C121.14206385 8.40233624 124.14761368 8.50603807 128.2043457 10.85693359 C130.86195983 15.50875199 130.67068327 19.61856234 130.6015625 24.890625 C130.60956879 25.9498114 130.61757507 27.0089978 130.62582397 28.10028076 C130.64888696 31.48390974 130.63944158 34.86633883 130.625 38.25 C130.62114127 41.61915534 130.62470618 44.9877763 130.64559937 48.35687256 C130.65759915 50.4504686 130.65516844 52.54421464 130.63589478 54.63775635 C130.65922906 60.79222313 131.19220346 66.42828302 134 72 C134.52234726 72.45443985 135.04469452 72.9088797 135.58287048 73.37709045 C137.7054276 75.80786207 137.36025987 77.75798727 137.34057617 80.94018555 C137.34034958 82.16122482 137.34012299 83.3822641 137.33988953 84.64030457 C137.32440567 85.95912125 137.30892181 87.27793793 137.29296875 88.63671875 C137.28737243 90.00006138 137.2831025 91.36341004 137.28010559 92.72676086 C137.26865949 96.31243592 137.23919486 99.89774554 137.20599365 103.48327637 C137.17528739 107.1430975 137.1615991 110.80297777 137.14648438 114.46289062 C137.11432449 121.64209356 137.06313153 128.82099554 137 136 C135.42981311 135.86013322 133.86007154 135.71526279 132.29052734 135.56835938 C131.41633148 135.48823608 130.54213562 135.40811279 129.64144897 135.32556152 C125.50111699 134.815261 121.60506818 133.72146083 117.625 132.5 C116.77212402 132.24009277 115.91924805 131.98018555 115.04052734 131.71240234 C97.24228561 126.06873932 79.65632425 117.63699565 65 106 C62.82604946 104.42783508 60.65075325 102.85784655 58.46875 101.296875 C57.9840625 100.86890625 57.499375 100.4409375 57 100 C57 99.34 57 98.68 57 98 C56.43667969 97.75121094 55.87335938 97.50242187 55.29296875 97.24609375 C46.49916253 92.46717691 40.00427019 83.77584814 34 76 C33.27039063 75.08605469 32.54078125 74.17210937 31.7890625 73.23046875 C19.54571419 57.52891154 10.80408301 40.14520077 4.6875 21.25 C4.44483398 20.50637207 4.20216797 19.76274414 3.95214844 18.99658203 C2.59155996 14.60016849 1.65535563 10.24714709 0.92114258 5.70214844 C0.74690262 4.63140076 0.57266266 3.56065308 0.3931427 2.4574585 C0.26340561 1.64649719 0.13366852 0.83553589 0 0 Z " fill="#FFFFFF" transform="translate(134,327)"/>
<path d="M0 0 C4.93541934 3.69275126 8.05763651 7.38767764 10.0625 13.25 C10.97723433 20.86569516 10.42184985 27.79407134 6.0625 34.25 C1.59334565 39.2818566 -2.89630626 41.87946075 -9.6640625 42.5 C-17.41733646 42.81405667 -23.80934884 41.91650845 -29.75390625 36.63671875 C-35.43090007 30.46726281 -36.41929111 24.45071853 -36.24609375 16.21875 C-35.61707362 10.16741713 -33.11210573 6.08657266 -28.75 1.9375 C-20.15725574 -4.73966433 -9.3426044 -5.93692595 0 0 Z " fill="#FFFFFF" transform="translate(312.9375,280.75)"/>
<path d="M0 0 C4 0 4 0 5.56811523 1.54125977 C6.05997314 2.25080811 6.55183105 2.96035645 7.05859375 3.69140625 C7.88520508 4.86219727 7.88520508 4.86219727 8.72851562 6.05664062 C9.29248047 6.88357422 9.85644531 7.71050781 10.4375 8.5625 C10.99759766 9.36236328 11.55769531 10.16222656 12.13476562 10.98632812 C13.24074814 12.56722495 14.34033199 14.15261975 15.43310547 15.74267578 C16.89161412 17.84385543 18.39404431 19.90508899 19.91015625 21.96484375 C22 25 22 25 22 27 C8.8 27 -4.4 27 -18 27 C-16.42324785 23.05811963 -15.26498748 20.72928394 -12.8125 17.4609375 C-11.88824219 16.21957031 -11.88824219 16.21957031 -10.9453125 14.953125 C-10.30335938 14.10234375 -9.66140625 13.2515625 -9 12.375 C-7.72870015 10.67482791 -6.45784756 8.97432126 -5.1875 7.2734375 C-4.62417969 6.52497559 -4.06085938 5.77651367 -3.48046875 5.00537109 C-2.27349479 3.37046276 -1.12724462 1.69086693 0 0 Z " fill="#FFFFFF" transform="translate(298,215)"/>
<path d="M0 0 C2.475 0.495 2.475 0.495 5 1 C5 1.66 5 2.32 5 3 C6.175625 3.4640625 6.175625 3.4640625 7.375 3.9375 C10 5 10 5 12 6 C12 6.66 12 7.32 12 8 C12.70125 8.2475 13.4025 8.495 14.125 8.75 C17.39514548 10.17180238 20.141122 11.87246288 23 14 C23 14.66 23 15.32 23 16 C24.65 16.66 26.3 17.32 28 18 C27.67 18.99 27.34 19.98 27 21 C26.34 21 25.68 21 25 21 C25 21.66 25 22.32 25 23 C21.50344613 25.6020866 18.10839064 27.54997977 14 29 C14 29.66 14 30.32 14 31 C12.04402816 32.39712274 10.0340906 33.71927629 8 35 C6.9275 35.7425 5.855 36.485 4.75 37.25 C2 39 2 39 0 39 C0 26.13 0 13.26 0 0 Z " fill="#FFFFFF" transform="translate(358,281)"/>
<path d="M0 0 C0 12.87 0 25.74 0 39 C-3.75731939 37.49707224 -6.51623332 36.18657823 -9.8125 34 C-10.60269531 33.484375 -11.39289063 32.96875 -12.20703125 32.4375 C-12.79871094 31.963125 -13.39039063 31.48875 -14 31 C-14 30.34 -14 29.68 -14 29 C-14.70125 28.7525 -15.4025 28.505 -16.125 28.25 C-19.39514548 26.82819762 -22.141122 25.12753712 -25 23 C-25 22.34 -25 21.68 -25 21 C-25.99 20.67 -26.98 20.34 -28 20 C-27.505 18.515 -27.505 18.515 -27 17 C-24.9375 16.3125 -24.9375 16.3125 -23 16 C-23 15.34 -23 14.68 -23 14 C-21.1015625 12.4921875 -21.1015625 12.4921875 -18.625 10.875 C-17.81289062 10.33617187 -17.00078125 9.79734375 -16.1640625 9.2421875 C-14 8 -14 8 -12 8 C-12 7.34 -12 6.68 -12 6 C-7.61538462 3 -7.61538462 3 -5 3 C-5 2.34 -5 1.68 -5 1 C-3 0 -3 0 0 0 Z " fill="#FFFFFF" transform="translate(242,281)"/>
<path d="M0 0 C13.2 0 26.4 0 40 0 C36.72226624 5.73603407 33.33682165 10.97488076 29.5 16.3125 C28.93152344 17.12267578 28.36304688 17.93285156 27.77734375 18.76757812 C27.22175781 19.54166016 26.66617187 20.31574219 26.09375 21.11328125 C25.59552734 21.81235596 25.09730469 22.51143066 24.58398438 23.23168945 C22.86764717 25.14775455 21.3555008 26.01291784 19 27 C13.99242134 21.03108102 9.41293309 14.85370546 5 8.4375 C4.26076294 7.36532227 4.26076294 7.36532227 3.5065918 6.27148438 C0 1.13087905 0 1.13087905 0 0 Z " fill="#FFFFFF" transform="translate(280,359)"/>
<path d="M0 0 C16.17 0 32.34 0 49 0 C49 0.66 49 1.32 49 2 C32.83 2 16.66 2 0 2 C0 1.34 0 0.68 0 0 Z " fill="#1974C6" transform="translate(275,597)"/>
</svg>
