<?xml version="1.0" encoding="UTF-8"?>
<svg version="1.1" xmlns="http://www.w3.org/2000/svg" width="600" height="600">
<path d="M0 0 C0.8957373 0.28681641 1.79147461 0.57363281 2.71435547 0.86914062 C34.20891919 11.12614612 64.12930512 27.37008991 90 48 C90.99 48.77859375 91.98 49.5571875 93 50.359375 C110.3638292 64.27016998 127.59461445 80.20146375 141 98 C141.92362263 99.18426227 142.84817138 100.36780259 143.7734375 101.55078125 C173.7254142 140.22758111 192.89343689 185.05229277 202 233 C202.13203827 233.63853912 202.26407654 234.27707825 202.40011597 234.93496704 C205.35125433 249.35755966 205.49821446 263.70336333 205.44604492 278.38452148 C205.43691344 281.07071291 205.44366046 283.75603015 205.46655273 286.44213867 C205.65392213 310.15380776 203.85373506 333.45987415 197.6875 356.4375 C197.38755127 357.58887451 197.08760254 358.74024902 196.77856445 359.92651367 C184.73208412 405.27149173 162.92526772 448.13971799 131.03125 482.78515625 C129.22158012 484.75839244 127.48160109 486.77107813 125.75 488.8125 C118.11211552 497.54656234 109.81281693 505.65291495 100.70703125 512.84375 C98.90069834 514.28256063 97.12643907 515.76257038 95.38671875 517.28125 C43.72028913 562.29754511 -27.35693438 584.55459457 -95.0625 584.3125 C-96.68881851 584.30926727 -96.68881851 584.30926727 -98.34799194 584.30596924 C-114.09052792 584.25573436 -129.48964057 583.94112275 -145 581 C-146.65636475 580.69400879 -146.65636475 580.69400879 -148.34619141 580.38183594 C-195.54307796 571.45813673 -241.12688194 552.94750292 -279 523 C-279.81082031 522.36964844 -280.62164062 521.73929688 -281.45703125 521.08984375 C-283.99809385 519.09065556 -286.50364064 517.05475193 -289 515 C-289.50724609 514.58443848 -290.01449219 514.16887695 -290.53710938 513.74072266 C-303.37957835 503.16524865 -315.6836417 491.71588181 -325.95703125 478.58984375 C-327.32430215 476.85657299 -328.7397996 475.16033402 -330.19921875 473.50390625 C-343.68861379 458.14160347 -354.72373948 440.18084464 -364 422 C-364.40911621 421.20094238 -364.81823242 420.40188477 -365.23974609 419.57861328 C-374.61109457 401.06975036 -381.85821919 382.01574478 -387.3125 362 C-387.62590332 360.86377197 -387.93930664 359.72754395 -388.26220703 358.55688477 C-389.26472557 354.72229154 -390.1559686 350.87172337 -391 347 C-391.17794098 346.21338989 -391.35588196 345.42677979 -391.53921509 344.61633301 C-395.52644624 326.4288713 -395.65414678 308.35085565 -395.57641602 289.82958984 C-395.56268987 286.4499532 -395.56956861 283.07144755 -395.59692383 279.69189453 C-396.13766927 212.66031107 -373.06386427 149.27291275 -331 97 C-330.18015625 95.97390625 -329.3603125 94.9478125 -328.515625 93.890625 C-321.95540115 85.88161421 -314.73134302 78.52165669 -307.4375 71.1875 C-306.71332382 70.45542328 -306.71332382 70.45542328 -305.97451782 69.70855713 C-299.33270164 63.01078761 -292.41222604 56.83869745 -285 51 C-284.392771 50.51313721 -283.78554199 50.02627441 -283.15991211 49.5246582 C-207.06698501 -11.30415472 -101.84578306 -30.82751851 0 0 Z " fill="#90A9D7" transform="translate(395,15)"/>
<path d="M0 0 C0.8957373 0.28681641 1.79147461 0.57363281 2.71435547 0.86914062 C34.20891919 11.12614612 64.12930512 27.37008991 90 48 C90.99 48.77859375 91.98 49.5571875 93 50.359375 C110.3638292 64.27016998 127.59461445 80.20146375 141 98 C141.92362263 99.18426227 142.84817138 100.36780259 143.7734375 101.55078125 C175.72763957 142.81304218 204 199.7618623 204 253 C179.91 253 155.82 253 131 253 C129.68 245.41 128.36 237.82 127 230 C123.74603324 217.55004021 120.21069572 205.74474273 115 194 C114.69255859 193.29230469 114.38511719 192.58460938 114.06835938 191.85546875 C106.26107197 174.02343953 96.25929814 157.14511522 84 142 C83.22011719 141.01773438 82.44023437 140.03546875 81.63671875 139.0234375 C69.79434139 124.39421364 56.25159568 111.03563211 41 100 C40.00484375 99.26007813 39.0096875 98.52015625 37.984375 97.7578125 C7.16092051 75.54911836 -27.49404076 62.35799418 -65 57 C-65 34.56 -65 12.12 -65 -11 C-84.8 -11 -104.6 -11 -125 -11 C-125 11.44 -125 33.88 -125 57 C-132.59 58.32 -140.18 59.64 -148 61 C-152.12571594 61.98015564 -156.09096995 62.9557408 -160.125 64.1875 C-161.10670166 64.48156738 -162.08840332 64.77563477 -163.09985352 65.07861328 C-208.18244846 79.04664294 -250.35800112 108.66976155 -278 147 C-279.1446875 148.56234375 -279.1446875 148.56234375 -280.3125 150.15625 C-290.1138094 163.90530903 -298.2940421 178.51251446 -305 194 C-305.30534668 194.7017334 -305.61069336 195.4034668 -305.92529297 196.12646484 C-309.75111906 205.05883938 -312.75817684 214.108226 -315.25 223.5 C-315.48412598 224.3760791 -315.71825195 225.2521582 -315.95947266 226.15478516 C-318.21766388 235.06937948 -319.47247591 243.83485545 -321 253 C-345.42 253 -369.84 253 -395 253 C-394.31432876 243.40060258 -393.41483098 234.57059795 -391.4375 225.25 C-391.17428955 224.00210693 -390.9110791 222.75421387 -390.63989258 221.46850586 C-386.14797267 200.88476746 -379.46827279 181.2687786 -371 162 C-370.68095703 161.26023926 -370.36191406 160.52047852 -370.03320312 159.75830078 C-361.70360223 140.55883488 -350.51739273 122.72956771 -338 106 C-337.53883789 105.38189453 -337.07767578 104.76378906 -336.60253906 104.12695312 C-321.94892149 84.63732975 -304.42952701 65.73356882 -285 51 C-283.50339844 49.81277344 -283.50339844 49.81277344 -281.9765625 48.6015625 C-205.97209497 -11.51529429 -101.36764111 -30.68348534 0 0 Z " fill="#1974C6" transform="translate(395,15)"/>
<path d="M0 0 C24.42 0 48.84 0 74 0 C75.32 7.59 76.64 15.18 78 23 C79.21672084 27.78576865 80.45496418 32.33778666 82 37 C82.20318848 37.62970703 82.40637695 38.25941406 82.61572266 38.90820312 C91.11912984 65.09793517 103.6979336 89.54567459 121 111 C121.64606201 111.81742676 121.64606201 111.81742676 122.30517578 112.65136719 C134.34489874 127.83735921 148.32649131 141.60648862 164 153 C164.84433594 153.62777344 165.68867188 154.25554687 166.55859375 154.90234375 C197.26652897 177.13912443 232.57631954 190.65375993 270 196 C270 220.42 270 244.84 270 270 C210.19628664 265.39971436 151.65956762 240.90247644 106 202 C104.92779773 201.11241755 103.85484086 200.22574611 102.78125 199.33984375 C90.55276832 189.16222028 78.86519064 178.13943682 69.04296875 165.58984375 C67.67569785 163.85657299 66.2602004 162.16033402 64.80078125 160.50390625 C51.31138621 145.14160347 40.27626052 127.18084464 31 109 C30.59088379 108.20094238 30.18176758 107.40188477 29.76025391 106.57861328 C13.35135666 74.17025385 0 36.64983197 0 0 Z " fill="#1974C6" transform="translate(0,328)"/>
<path d="M0 0 C24.09 0 48.18 0 73 0 C73 60.71497954 40.68415903 125.6252181 0.03125 169.78515625 C-1.77841988 171.75839244 -3.51839891 173.77107813 -5.25 175.8125 C-12.88788448 184.54656234 -21.18718307 192.65291495 -30.29296875 199.84375 C-32.09930166 201.28256063 -33.87356093 202.76257038 -35.61328125 204.28125 C-79.13793337 242.20371918 -138.89724137 265.24143678 -196 270 C-196 245.58 -196 221.16 -196 196 C-184.615 194.02 -184.615 194.02 -173 192 C-169.00170958 191.00220916 -165.20253546 190.01900085 -161.3125 188.75 C-160.37374023 188.45262939 -159.43498047 188.15525879 -158.46777344 187.84887695 C-129.42750264 178.45306399 -101.96738586 164.333689 -79 144 C-78.22527344 143.33355469 -77.45054687 142.66710937 -76.65234375 141.98046875 C-64.18077113 131.0500986 -52.83015721 119.3572568 -43 106 C-42.36835938 105.15179688 -41.73671875 104.30359375 -41.0859375 103.4296875 C-35.90454487 96.26091139 -31.41463043 88.65616946 -27 81 C-26.6582373 80.4112207 -26.31647461 79.82244141 -25.96435547 79.21582031 C-17.19248052 63.95181516 -10.74537427 47.72303297 -6.125 30.75 C-5.85099365 29.74670654 -5.5769873 28.74341309 -5.29467773 27.7097168 C-2.90753051 18.49368424 -1.58263502 9.4958101 0 0 Z " fill="#1974C6" transform="translate(526,328)"/>
<path d="M0 0 C1.10479706 -0.0127597 2.20959412 -0.02551941 3.34786987 -0.03866577 C4.54163239 -0.04089142 5.7353949 -0.04311707 6.96533203 -0.04541016 C8.80564499 -0.05539536 8.80564499 -0.05539536 10.68313599 -0.06558228 C13.28060403 -0.07571582 15.87809815 -0.08039908 18.47558594 -0.08007812 C22.45046919 -0.08444773 26.42423933 -0.12075279 30.39892578 -0.15869141 C32.9210574 -0.16456004 35.44319429 -0.16852912 37.96533203 -0.17041016 C39.15504608 -0.18478119 40.34476013 -0.19915222 41.57052612 -0.21395874 C49.82221917 -0.16826101 49.82221917 -0.16826101 53.77832031 2.17089844 C60.13915082 9.57963609 59.7430308 17.15889421 59.80908203 26.48974609 C59.83712648 28.68962363 59.86579074 30.88949335 59.89501953 33.08935547 C59.93642313 36.54581683 59.9733271 40.00212801 59.99951172 43.45874023 C60.02701655 46.80271165 60.07285688 50.14602577 60.12158203 53.48974609 C60.12646133 55.0460096 60.12646133 55.0460096 60.13143921 56.63371277 C60.14800568 57.59513687 60.16457214 58.55656097 60.18164062 59.54711914 C60.18972748 60.39283981 60.19781433 61.23856049 60.20614624 62.10990906 C60.45097739 64.34124363 60.45097739 64.34124363 61.82969666 66.06195068 C64.11911614 67.6524569 65.53208897 67.67438818 68.30981445 67.69116211 C69.74226753 67.71117027 69.74226753 67.71117027 71.20365906 67.73158264 C72.23489395 67.73169846 73.26612885 67.73181427 74.32861328 67.73193359 C75.92519524 67.75174538 75.92519524 67.75174538 77.55403137 67.7719574 C80.96459514 67.81291768 84.37489027 67.83452589 87.78564453 67.85302734 C91.17846194 67.87687462 94.57102839 67.9051479 97.96369934 67.94480896 C100.07501011 67.96900147 102.1864526 67.98399342 104.29789734 67.98841858 C112.34821128 68.07289674 119.52428911 68.39531473 125.59814453 74.29052734 C127.83241469 77.64193258 127.85796803 78.77328177 127.88867188 82.69238281 C127.90143158 83.79717987 127.91419128 84.90197693 127.92733765 86.04025269 C127.92956329 87.2340152 127.93178894 88.42777771 127.93408203 89.65771484 C127.94406723 91.4980278 127.94406723 91.4980278 127.95425415 93.3755188 C127.96438769 95.97298684 127.96907095 98.57048096 127.96875 101.16796875 C127.9731196 105.142852 128.00942466 109.11662215 128.04736328 113.09130859 C128.05323192 115.61344021 128.057201 118.1355771 128.05908203 120.65771484 C128.07345306 121.84742889 128.0878241 123.03714294 128.10263062 124.26290894 C128.05693289 132.51460198 128.05693289 132.51460198 125.71777344 136.47070312 C118.30903579 142.83153363 110.72977767 142.43541362 101.39892578 142.50146484 C99.19904824 142.5295093 96.99917853 142.55817355 94.79931641 142.58740234 C91.34285504 142.62880595 87.88654387 142.66570991 84.42993164 142.69189453 C81.08596022 142.71939937 77.74264611 142.76523969 74.39892578 142.81396484 C73.36141678 142.81721771 72.32390778 142.82047058 71.25495911 142.82382202 C70.293535 142.84038849 69.3321109 142.85695496 68.34155273 142.87402344 C67.49583206 142.88211029 66.65011139 142.89019714 65.77876282 142.89852905 C63.54742825 143.1433602 63.54742825 143.1433602 61.82672119 144.52207947 C60.23621497 146.81149895 60.21428369 148.22447179 60.19750977 151.00219727 C60.18417099 151.95716599 60.17083221 152.9121347 60.15708923 153.89604187 C60.15697342 154.92727676 60.1568576 155.95851166 60.15673828 157.02099609 C60.14353043 158.08538406 60.13032257 159.14977203 60.11671448 160.24641418 C60.0757542 163.65697796 60.05414598 167.06727308 60.03564453 170.47802734 C60.01179725 173.87084475 59.98352397 177.2634112 59.94386292 180.65608215 C59.91967041 182.76739293 59.90467845 184.87883542 59.9002533 186.99028015 C59.81577513 195.04059409 59.49335715 202.21667192 53.59814453 208.29052734 C50.24673929 210.5247975 49.1153901 210.55035084 45.19628906 210.58105469 C44.091492 210.59381439 42.98669495 210.6065741 41.84841919 210.61972046 C40.05777542 210.62305893 40.05777542 210.62305893 38.23095703 210.62646484 C36.39064407 210.63645004 36.39064407 210.63645004 34.51315308 210.64663696 C31.91568503 210.6567705 29.31819092 210.66145377 26.72070312 210.66113281 C22.74581987 210.66550242 18.77204973 210.70180747 14.79736328 210.73974609 C12.27523167 210.74561473 9.75309477 210.74958381 7.23095703 210.75146484 C5.44638596 210.77302139 5.44638596 210.77302139 3.62576294 210.79501343 C-4.62593011 210.7493157 -4.62593011 210.7493157 -8.58203125 208.41015625 C-14.94286175 201.0014186 -14.54674174 193.42216048 -14.61279297 184.09130859 C-14.64083742 181.89143105 -14.66950168 179.69156134 -14.69873047 177.49169922 C-14.74013407 174.03523785 -14.77703804 170.57892668 -14.80322266 167.12231445 C-14.83072749 163.77834304 -14.87656782 160.43502892 -14.92529297 157.09130859 C-14.92854584 156.05379959 -14.93179871 155.01629059 -14.93515015 153.94734192 C-14.95171661 152.98591782 -14.96828308 152.02449371 -14.98535156 151.03393555 C-14.99343842 150.18821487 -15.00152527 149.3424942 -15.00985718 148.47114563 C-15.25468833 146.23981106 -15.25468833 146.23981106 -16.63340759 144.519104 C-18.92282707 142.92859779 -20.33579991 142.9066665 -23.11352539 142.88989258 C-24.06849411 142.8765538 -25.02346283 142.86321503 -26.00737 142.84947205 C-27.03860489 142.84935623 -28.06983978 142.84924042 -29.13232422 142.84912109 C-30.19671219 142.83591324 -31.26110016 142.82270538 -32.35774231 142.80909729 C-35.76830608 142.76813701 -39.17860121 142.74652879 -42.58935547 142.72802734 C-45.98217288 142.70418006 -49.37473933 142.67590678 -52.76741028 142.63624573 C-54.87872105 142.61205322 -56.99016354 142.59706126 -59.10160828 142.59263611 C-67.15192221 142.50815794 -74.32800005 142.18573996 -80.40185547 136.29052734 C-82.63612563 132.9391221 -82.66167896 131.80777291 -82.69238281 127.88867188 C-82.70514252 126.78387482 -82.71790222 125.67907776 -82.73104858 124.540802 C-82.73327423 123.34703949 -82.73549988 122.15327698 -82.73779297 120.92333984 C-82.74444977 119.69646454 -82.75110657 118.46958923 -82.75796509 117.20553589 C-82.76809863 114.60806784 -82.77278189 112.01057373 -82.77246094 109.41308594 C-82.77683054 105.43820268 -82.8131356 101.46443254 -82.85107422 97.48974609 C-82.85694286 94.96761448 -82.86091193 92.44547758 -82.86279297 89.92333984 C-82.877164 88.73362579 -82.89153503 87.54391174 -82.90634155 86.31814575 C-82.86064383 78.06645271 -82.86064383 78.06645271 -80.52148438 74.11035156 C-73.11274673 67.74952106 -65.53348861 68.14564107 -56.20263672 68.07958984 C-54.00275918 68.05154539 -51.80288947 68.02288113 -49.60302734 67.99365234 C-46.14656598 67.95224874 -42.69025481 67.91534478 -39.23364258 67.88916016 C-35.88967116 67.86165532 -32.54635704 67.815815 -29.20263672 67.76708984 C-27.64637321 67.76221054 -27.64637321 67.76221054 -26.05867004 67.75723267 C-25.09724594 67.7406662 -24.13582184 67.72409973 -23.14526367 67.70703125 C-22.299543 67.6989444 -21.45382233 67.69085754 -20.58247375 67.68252563 C-18.35113919 67.43769449 -18.35113919 67.43769449 -16.63043213 66.05897522 C-15.03992591 63.76955574 -15.01799463 62.3565829 -15.0012207 59.57885742 C-14.98788193 58.6238887 -14.97454315 57.66891998 -14.96080017 56.68501282 C-14.96068436 55.65377792 -14.96056854 54.62254303 -14.96044922 53.56005859 C-14.94724136 52.49567062 -14.93403351 51.43128265 -14.92042542 50.3346405 C-14.87946513 46.92407673 -14.85785692 43.51378161 -14.83935547 40.10302734 C-14.81550819 36.71020993 -14.78723491 33.31764349 -14.74757385 29.92497253 C-14.72338135 27.81366176 -14.70838939 25.70221927 -14.70396423 23.59077454 C-14.61948607 15.5404606 -14.29706808 8.36438277 -8.40185547 2.29052734 C-5.05045023 0.05625718 -3.91910104 0.03070385 0 0 Z " fill="#DEE4F1" transform="translate(277.40185546875,194.70947265625)"/>
<path d="M0 0 C0.09276991 8.25815214 0.16379982 16.51608577 0.20724869 24.77463055 C0.22810438 28.60962547 0.25638415 32.44426331 0.30175781 36.27905273 C0.34528908 39.98139253 0.36915229 43.68338934 0.37950897 47.38596535 C0.38688742 48.79696869 0.40129614 50.20795372 0.42292023 51.61881065 C0.45204479 53.59814448 0.45363467 55.57782502 0.45410156 57.55737305 C0.46298401 58.68322311 0.47186646 59.80907318 0.48101807 60.96903992 C-0.10747008 64.67718353 -1.54850343 66.22084478 -4 69 C-6.20862131 75.45354775 -6.28007283 81.58449817 -6.2734375 88.359375 C-6.29370768 90.54818237 -6.31455807 92.73698443 -6.3359375 94.92578125 C-6.35861423 98.35144583 -6.37504565 101.77690026 -6.38085938 105.20263672 C-6.39035361 108.52609425 -6.42406847 111.84862446 -6.4609375 115.171875 C-6.45589203 116.19794861 -6.45084656 117.22402222 -6.44564819 118.28118896 C-6.50003932 122.19710193 -6.55428371 125.13182358 -8.35693359 128.64306641 C-12.69191698 130.86861949 -17.02739327 130.56266895 -21.828125 130.5390625 C-22.89109802 130.55085541 -23.95407104 130.56264832 -25.04925537 130.57479858 C-28.44965168 130.61010965 -31.84943529 130.61922899 -35.25 130.625 C-38.63609727 130.64138356 -42.0219215 130.66355168 -45.40789795 130.69662476 C-47.51366173 130.71612588 -49.61954977 130.72560374 -51.72540283 130.72354126 C-58.71016963 130.7737804 -65.02499789 131.01666526 -71 135 C-73.79045105 135.24050903 -73.79045105 135.24050903 -77.21557617 135.22705078 C-78.4966777 135.22689972 -79.77777924 135.22674866 -81.09770203 135.22659302 C-82.49612584 135.21637973 -83.89454808 135.20594774 -85.29296875 135.1953125 C-86.72357485 135.19158178 -88.15418352 135.18873509 -89.58479309 135.18673706 C-93.34792144 135.17910522 -97.11089511 135.15946069 -100.8739624 135.1373291 C-104.71478178 135.11686094 -108.55562617 135.10773327 -112.39648438 135.09765625 C-119.93106006 135.07621429 -127.46550834 135.04208387 -135 135 C-132.02973835 117.71944683 -132.02973835 117.71944683 -128.8125 109.5 C-128.51279297 108.71230225 -128.21308594 107.92460449 -127.90429688 107.11303711 C-124.79513876 99.13900813 -121.07466032 91.52006929 -117 84 C-116.13568359 82.39705078 -116.13568359 82.39705078 -115.25390625 80.76171875 C-93.75131525 42.47419529 -57.66893347 16.0857437 -16.05200195 3.62841797 C-14.24769329 3.07585515 -12.45825227 2.47522671 -10.671875 1.8671875 C-7.23940749 0.75314103 -3.62934474 0 0 0 Z " fill="#1974C6" transform="translate(270,133)"/>
<path d="M0 0 C3.36786348 0.79142232 6.73478698 1.58677572 10.1015625 2.3828125 C11.04974854 2.60557861 11.99793457 2.82834473 12.97485352 3.05786133 C54.35564013 12.85904721 90.3246055 40.33938012 112.70703125 76.28125 C119.75919143 87.89149776 125.35187311 99.70136246 129.75 112.5625 C130.04414795 113.41295898 130.3382959 114.26341797 130.64135742 115.13964844 C132.19416205 119.83988417 133.31345298 124.43997786 134.09472656 129.33178711 C134.35264984 130.93055946 134.35264984 130.93055946 134.61578369 132.56163025 C134.74257507 133.36629227 134.86936646 134.17095428 135 135 C126.74182246 135.06957765 118.48376785 135.12285044 110.22536945 135.15543652 C106.39045657 135.17107795 102.55574455 135.19228805 98.72094727 135.22631836 C95.01862304 135.25896667 91.31649175 135.27686447 87.61403465 135.28463173 C86.20305533 135.29016547 84.79208631 135.30097164 83.38118935 135.31719017 C81.40177373 135.33903449 79.42216307 135.340226 77.44262695 135.34057617 C76.31677689 135.34723801 75.19092682 135.35389984 74.03096008 135.36076355 C70.62791544 134.9557122 68.81452356 133.89355976 66 132 C60.40678804 130.55286738 54.57716037 130.84746883 48.8359375 130.82421875 C46.64061523 130.80103797 44.44530267 130.77692137 42.25 130.75195312 C38.80234076 130.71673775 35.35504448 130.68742273 31.90722656 130.67407227 C28.57052437 130.65863776 25.23486527 130.6184806 21.8984375 130.57421875 C20.86608978 130.57612717 19.83374207 130.57803558 18.77011108 130.58000183 C14.84001895 130.51258518 11.87626405 130.44984895 8.35253906 128.64086914 C6.1325568 124.30629366 6.43734403 119.96996699 6.4609375 115.171875 C6.44914459 114.10890198 6.43735168 113.04592896 6.42520142 111.95074463 C6.38989035 108.55034832 6.38077101 105.15056471 6.375 101.75 C6.35861644 98.36390273 6.33644832 94.9780785 6.30337524 91.59210205 C6.28387412 89.48633827 6.27439626 87.38045023 6.27645874 85.27459717 C6.36212628 75.28199706 6.36212628 75.28199706 1.95132446 66.67750549 C-0.45952379 63.36946547 -0.48611075 61.61453725 -0.45410156 57.55737305 C-0.45379944 56.27642258 -0.45349731 54.99547211 -0.45318604 53.67570496 C-0.43276253 52.28770316 -0.4118986 50.89970778 -0.390625 49.51171875 C-0.38315903 48.08397719 -0.37746778 46.65622534 -0.37347412 45.22846985 C-0.35824547 41.48159189 -0.31898877 37.73534009 -0.2746582 33.9887085 C-0.23364496 30.16117828 -0.21545027 26.33354628 -0.1953125 22.50585938 C-0.15249077 15.00362165 -0.08427436 7.50189876 0 0 Z " fill="#1974C6" transform="translate(330,133)"/>
<path d="M0 0 C7.86691217 -0.1159815 15.73362314 -0.20475893 23.60117626 -0.25906086 C27.25468893 -0.28512695 30.9076156 -0.32046776 34.56079102 -0.37719727 C38.08808948 -0.43162765 41.61482527 -0.46144302 45.14251137 -0.47438622 C47.13956402 -0.48808639 49.13639106 -0.52710294 51.13310242 -0.56648254 C60.2481145 -0.56930207 60.2481145 -0.56930207 64.17700195 2.40551758 C65.07938599 3.68978638 65.07938599 3.68978638 66 5 C71.99513777 8.99675851 79.19485813 8.14755825 86.1640625 8.17578125 C88.35938477 8.19896203 90.55469733 8.22307863 92.75 8.24804688 C96.19765924 8.28326225 99.64495552 8.31257727 103.09277344 8.32592773 C106.42947563 8.34136224 109.76513473 8.3815194 113.1015625 8.42578125 C114.65008408 8.42291862 114.65008408 8.42291862 116.22988892 8.41999817 C120.15998105 8.48741482 123.12373595 8.55015105 126.64746094 10.35913086 C128.8674432 14.69370634 128.56265597 19.03003301 128.5390625 23.828125 C128.55085541 24.89109802 128.56264832 25.95407104 128.57479858 27.04925537 C128.61010965 30.44965168 128.61922899 33.84943529 128.625 37.25 C128.64138356 40.63609727 128.66355168 44.0219215 128.69662476 47.40789795 C128.71612588 49.51366173 128.72560374 51.61954977 128.72354126 53.72540283 C128.64532935 63.72271777 128.64532935 63.72271777 133.04867554 72.34544373 C135.40359868 75.54905036 135.48722445 77.14209636 135.45410156 81.07543945 C135.45379944 82.27630692 135.45349731 83.47717438 135.45318604 84.71443176 C135.43254089 86.00105209 135.41189575 87.28767242 135.390625 88.61328125 C135.38315827 89.95134127 135.37746738 91.28941228 135.37347412 92.62748718 C135.35825131 96.13765008 135.31900009 99.64714374 135.2746582 103.15704346 C135.23363207 106.74327543 135.21544755 110.32961627 135.1953125 113.91601562 C135.15250133 120.94428415 135.08429168 127.97210988 135 135 C117.57317903 131.95166957 117.57317903 131.95166957 110.4375 129.25 C109.73898926 128.99323486 109.04047852 128.73646973 108.32080078 128.47192383 C65.30649548 112.311182 31.85215943 80.76916009 11.75 39.625 C9.43109042 34.37624999 7.56875925 29.01952611 5.8125 23.5625 C5.5743457 22.82402832 5.33619141 22.08555664 5.09082031 21.32470703 C3.60086394 16.49227491 2.45879301 11.63114891 1.4128418 6.68334961 C1.14698776 5.42969101 0.88113373 4.17603241 0.60722351 2.88438416 C0.40683975 1.93253738 0.20645599 0.98069061 0 0 Z " fill="#1974C6" transform="translate(135,328)"/>
<path d="M0 0 C1.62215675 0.00333092 1.62215675 0.00333092 3.27708435 0.00672913 C4.49827469 0.00680466 5.71946503 0.00688019 6.97766113 0.00695801 C8.32022644 0.0120654 9.66279134 0.01728141 11.00535583 0.02259827 C12.37156116 0.02446252 13.73776716 0.02588639 15.10397339 0.02688599 C18.70596654 0.03071058 22.30791959 0.04054035 25.90989685 0.05158997 C29.58298703 0.06180536 33.25608368 0.06638388 36.92918396 0.07142639 C44.14079081 0.08216268 51.35236459 0.09923838 58.56394958 0.12025452 C57.77252727 3.488118 56.97717386 6.8550415 56.18113708 10.22181702 C55.95837097 11.17000305 55.73560486 12.11818909 55.50608826 13.09510803 C45.70490238 54.47589464 18.22456946 90.44486002 -17.71730042 112.82728577 C-28.95720032 119.65422182 -40.33526194 125.27250076 -52.87355042 129.30775452 C-53.98125793 129.66498596 -53.98125793 129.66498596 -55.11134338 130.0294342 C-59.9437755 131.51939057 -64.8049015 132.6614615 -69.75270081 133.70741272 C-71.63318871 134.10619377 -71.63318871 134.10619377 -73.55166626 134.51303101 C-74.97943642 134.81360664 -74.97943642 134.81360664 -76.43605042 135.12025452 C-76.55221722 127.41831657 -76.64090329 119.71647017 -76.69511127 112.01385403 C-76.72113713 108.43661861 -76.75640338 104.85998527 -76.81324768 101.28309631 C-76.86782299 97.82710978 -76.89752363 94.37170003 -76.91043663 90.91531563 C-76.92408735 88.96377646 -76.96308042 87.01246738 -77.00253296 85.0612793 C-77.00491885 77.47559312 -76.29948488 73.90563597 -71.43605042 68.12025452 C-69.83170077 62.63624241 -70.28327713 56.63762815 -70.26026917 50.95619202 C-70.23708838 48.76086974 -70.21297179 46.56555719 -70.18800354 44.37025452 C-70.15278816 40.92259528 -70.12347314 37.475299 -70.11012268 34.02748108 C-70.09468818 30.69077888 -70.05453102 27.35511978 -70.01026917 24.01869202 C-70.01217758 22.9863443 -70.014086 21.95399658 -70.01605225 20.8903656 C-69.9486356 16.96027347 -69.88589936 13.99651857 -68.07691956 10.47279358 C-63.74234408 8.25281132 -59.40601741 8.55759855 -54.60792542 8.58119202 C-53.54495239 8.56939911 -52.48197937 8.5576062 -51.38679504 8.54545593 C-47.98639874 8.51014487 -44.58661512 8.50102552 -41.18605042 8.49525452 C-37.79995314 8.47887095 -34.41412891 8.45670284 -31.02815247 8.42362976 C-28.92238869 8.40412863 -26.81650065 8.39465078 -24.71064758 8.39671326 C-14.34691323 8.37021067 -14.34691323 8.37021067 -5.49855042 3.55775452 C-4.81792542 2.75337952 -4.13730042 1.94900452 -3.43605042 1.12025452 C-2.43605042 0.12025452 -2.43605042 0.12025452 0 0 Z " fill="#1974C6" transform="translate(406.43605041503906,327.87974548339844)"/>
<path d="M0 0 C5.6069259 2.85943045 9.76825492 7.60428933 12.125 13.4375 C13.07091312 21.03780191 12.47228444 27.99943946 8.125 34.4375 C3.63018921 39.49824338 -0.85390475 42.02230912 -7.63671875 42.72265625 C-14.77399111 43.07190797 -19.46994246 42.2155207 -24.875 37.4375 C-30.37616598 32.18958463 -31.95693815 27.01058514 -32.3125 19.5625 C-32.18569924 12.74061918 -30.1133725 8.6758725 -25.34765625 3.91015625 C-17.9629778 -2.57257674 -9.19760977 -3.63844325 0 0 Z " fill="#1B74C6" transform="translate(309.875,279.5625)"/>
<path d="M0 0 C19.8 0 39.6 0 60 0 C60 4.95 60 9.9 60 15 C57.3919477 17.6080523 56.2961806 17.25291786 52.6640625 17.25878906 C51.54950684 17.26509338 50.43495117 17.27139771 49.28662109 17.27789307 C48.07828613 17.2738446 46.86995117 17.26979614 45.625 17.265625 C43.77189209 17.26849518 43.77189209 17.26849518 41.88134766 17.27142334 C38.59408593 17.2731361 35.30701213 17.26506699 32.01977539 17.25390625 C30.0020547 17.25000397 27.98450799 17.25389171 25.96679688 17.26074219 C22.10278172 17.27306004 18.23902572 17.27160978 14.375 17.265625 C13.16666504 17.26967346 11.95833008 17.27372192 10.71337891 17.27789307 C9.59882324 17.27158875 8.48426758 17.26528442 7.3359375 17.25878906 C6.35157715 17.25719788 5.3672168 17.25560669 4.35302734 17.25396729 C2 17 2 17 0 15 C0 10.05 0 5.1 0 0 Z " fill="#E9ECF5" transform="translate(270,388)"/>
<path d="M0 0 C3.96 0 7.92 0 12 0 C15.12451001 4.16601335 15.37328021 4.75452854 15.34057617 9.59472656 C15.34034958 10.71558655 15.34012299 11.83644653 15.33988953 12.99127197 C15.32440567 14.19555847 15.30892181 15.39984497 15.29296875 16.640625 C15.28872391 17.87794373 15.28447906 19.11526245 15.28010559 20.39007568 C15.26616254 23.67162541 15.23923086 26.95273056 15.20599365 30.23413086 C15.17524594 33.58573307 15.16184603 36.93735439 15.14648438 40.2890625 C15.11339985 46.85957122 15.06160842 53.42969931 15 60 C10.05 60 5.1 60 0 60 C0 40.2 0 20.4 0 0 Z " fill="#E9ECF5" transform="translate(390,268)"/>
<path d="M0 0 C3.96 0 7.92 0 12 0 C12 19.8 12 39.6 12 60 C7.05 60 2.1 60 -3 60 C-3.07409547 52.09800271 -3.12857703 44.19620717 -3.16479492 36.29394531 C-3.17819884 33.60503753 -3.19908356 30.91634148 -3.22631836 28.22753906 C-3.26266166 24.3651725 -3.27971773 20.50313121 -3.29296875 16.640625 C-3.30845261 15.4363385 -3.32393646 14.232052 -3.33988953 12.99127197 C-3.34011612 11.87041199 -3.34034271 10.749552 -3.34057617 9.59472656 C-3.35056892 8.11579926 -3.35056892 8.11579926 -3.36076355 6.60699463 C-3 4 -3 4 0 0 Z " fill="#E9ECF5" transform="translate(198,268)"/>
<path d="M0 0 C1.11455566 -0.00630432 2.22911133 -0.01260864 3.37744141 -0.019104 C4.58577637 -0.01505554 5.79411133 -0.01100708 7.0390625 -0.00683594 C8.89217041 -0.00970612 8.89217041 -0.00970612 10.78271484 -0.01263428 C14.06997657 -0.01434704 17.35705037 -0.00627793 20.64428711 0.00488281 C22.6620078 0.00878509 24.67955451 0.00489736 26.69726562 -0.00195312 C30.56128078 -0.01427098 34.42503678 -0.01282072 38.2890625 -0.00683594 C39.49739746 -0.0108844 40.70573242 -0.01493286 41.95068359 -0.019104 C43.06523926 -0.01279968 44.17979492 -0.00649536 45.328125 0 C46.80466553 0.00238678 46.80466553 0.00238678 48.31103516 0.00482178 C50.6640625 0.25878906 50.6640625 0.25878906 52.6640625 2.25878906 C52.6640625 5.88878906 52.6640625 9.51878906 52.6640625 13.25878906 C32.8640625 13.25878906 13.0640625 13.25878906 -7.3359375 13.25878906 C-7.3359375 0.0118583 -7.3359375 0.0118583 0 0 Z " fill="#E9ECF5" transform="translate(277.3359375,194.7412109375)"/>
<path d="M0 0 C0 12.54 0 25.08 0 38 C-12.96771845 29.74781553 -12.96771845 29.74781553 -19.1875 25.1875 C-19.85330078 24.71119141 -20.51910156 24.23488281 -21.20507812 23.74414062 C-22.84238333 22.54771308 -24.42712555 21.27995046 -26 20 C-26 19.34 -26 18.68 -26 18 C-24.45874023 16.65893555 -24.45874023 16.65893555 -22.30859375 15.13671875 C-21.52806641 14.57919922 -20.74753906 14.02167969 -19.94335938 13.44726562 C-19.11642578 12.86654297 -18.28949219 12.28582031 -17.4375 11.6875 C-16.63763672 11.11837891 -15.83777344 10.54925781 -15.01367188 9.96289062 C-13.43193176 8.83824112 -11.847818 7.71692175 -10.26123047 6.59912109 C-8.15360309 5.10862667 -6.06254016 3.59723714 -3.97265625 2.08203125 C-1 0 -1 0 0 0 Z " fill="#2076C6" transform="translate(241,281)"/>
<path d="M0 0 C0.66 0 1.32 0 2 0 C3.34106445 1.52539062 3.34106445 1.52539062 4.86328125 3.65625 C5.42080078 4.43226563 5.97832031 5.20828125 6.55273438 6.0078125 C7.13345703 6.83023438 7.71417969 7.65265625 8.3125 8.5 C8.88162109 9.29148438 9.45074219 10.08296875 10.03710938 10.8984375 C13.5666814 15.84226972 16.76680419 20.8268867 20 26 C7.46 26 -5.08 26 -18 26 C-9.74781553 13.03228155 -9.74781553 13.03228155 -5.1875 6.8125 C-4.47303711 5.81379883 -4.47303711 5.81379883 -3.74414062 4.79492188 C-2.54771308 3.15761667 -1.27995046 1.57287445 0 0 Z " fill="#2076C6" transform="translate(299,215)"/>
<path d="M0 0 C11.88 0 23.76 0 36 0 C34 5 34 5 33 7 C32.34 7 31.68 7 31 7 C30.7525 7.70125 30.505 8.4025 30.25 9.125 C28.82819762 12.39514548 27.12753712 15.141122 25 18 C24.34 18 23.68 18 23 18 C22.71125 18.763125 22.4225 19.52625 22.125 20.3125 C21 23 21 23 19 26 C18.34 26 17.68 26 17 26 C13 20.58823529 13 20.58823529 13 18 C12.34 18 11.68 18 11 18 C8.3979134 14.50344613 6.45002023 11.10839064 5 7 C4.34 7 3.68 7 3 7 C0 2.61538462 0 2.61538462 0 0 Z " fill="#1F75C6" transform="translate(282,359)"/>
<path d="M0 0 C5 2 5 2 7 3 C7 3.66 7 4.32 7 5 C7.70125 5.2475 8.4025 5.495 9.125 5.75 C12.39514548 7.17180238 15.141122 8.87246288 18 11 C18 11.66 18 12.32 18 13 C18.763125 13.28875 19.52625 13.5775 20.3125 13.875 C23 15 23 15 26 17 C26 17.66 26 18.32 26 19 C20.58823529 23 20.58823529 23 18 23 C18 23.66 18 24.32 18 25 C14.50344613 27.6020866 11.10839064 29.54997977 7 31 C7 31.66 7 32.32 7 33 C2.61538462 36 2.61538462 36 0 36 C0 24.12 0 12.24 0 0 Z " fill="#1F75C6" transform="translate(359,282)"/>
</svg>
