<?xml version="1.0" encoding="UTF-8"?>
<svg version="1.1" xmlns="http://www.w3.org/2000/svg" width="500" height="500">
<path d="M0 0 C0.74894531 0.70382813 1.49789063 1.40765625 2.26953125 2.1328125 C4.27299107 4.03949797 4.27299107 4.03949797 7.1875 5.875 C7.1875 6.535 7.1875 7.195 7.1875 7.875 C7.78425537 8.14344727 8.38101074 8.41189453 8.99584961 8.68847656 C11.20504031 9.88449604 12.54585855 11.0366429 14.25390625 12.859375 C14.81650146 13.45790283 15.37909668 14.05643066 15.95874023 14.6730957 C16.84541382 15.63928833 16.84541382 15.63928833 17.75 16.625 C18.36625244 17.29168701 18.98250488 17.95837402 19.61743164 18.64526367 C25.52068788 25.10812085 30.95028797 31.86625155 36.1875 38.875 C37.10208984 40.09509766 37.10208984 40.09509766 38.03515625 41.33984375 C60.75882984 72.76620085 75.07906809 108.88764675 82.1875 146.875 C82.37441406 147.7628418 82.56132812 148.65068359 82.75390625 149.56542969 C84.94040951 161.25150871 84.58317279 173.15564078 84.5625 185 C84.56168427 186.74426773 84.56168427 186.74426773 84.56085205 188.52377319 C84.52398696 205.62637479 84.01663826 222.13636213 80.1875 238.875 C79.97319336 239.84953125 79.75888672 240.8240625 79.53808594 241.828125 C72.92951801 271.22518991 61.27560556 299.98432395 44.1875 324.875 C43.55714844 325.79611572 43.55714844 325.79611572 42.9140625 326.73583984 C28.28629315 347.95164623 10.76329348 368.20084238 -9.8125 383.875 C-10.38081543 384.3090918 -10.94913086 384.74318359 -11.53466797 385.19042969 C-20.00414105 391.62641853 -28.64342378 397.4721947 -37.8125 402.875 C-38.80507813 403.49632812 -39.79765625 404.11765625 -40.8203125 404.7578125 C-77.33567271 426.91823995 -120.89816367 437.06415535 -163.24609375 437.06030273 C-165.91162348 437.06247887 -168.57673109 437.08066879 -171.2421875 437.09960938 C-236.82495951 437.31690649 -298.20976168 409.21585278 -344.8125 363.875 C-345.67488281 363.05257813 -346.53726563 362.23015625 -347.42578125 361.3828125 C-353.04698966 355.9266482 -357.96481966 350.02087271 -362.8125 343.875 C-363.59367187 342.91078125 -364.37484375 341.9465625 -365.1796875 340.953125 C-395.00594814 303.40824739 -416.14780369 253.58438967 -416.11328125 205.23828125 C-416.11718663 203.86508561 -416.12152492 202.49189113 -416.12626648 201.11869812 C-416.13366347 198.25886093 -416.13348653 195.3991473 -416.12817383 192.53930664 C-416.12354883 189.6468956 -416.13044443 186.75490558 -416.14868164 183.86254883 C-416.24572729 168.32268492 -416.303485 153.10307643 -412.8125 137.875 C-412.45998169 136.22407349 -412.45998169 136.22407349 -412.1003418 134.53979492 C-411.45127351 131.61492372 -410.74450524 128.71440702 -410 125.8125 C-409.74138184 124.79720215 -409.48276367 123.7819043 -409.21630859 122.73583984 C-397.6676542 78.45084228 -373.32375085 40.53412968 -341.375 8.25 C-340.56861084 7.43047852 -339.76222168 6.61095703 -338.93139648 5.76660156 C-338.17157471 5.00573242 -337.41175293 4.24486328 -336.62890625 3.4609375 C-335.94256104 2.7704834 -335.25621582 2.0800293 -334.54907227 1.36865234 C-332.8125 -0.125 -332.8125 -0.125 -330.8125 -0.125 C-330.8125 -0.785 -330.8125 -1.445 -330.8125 -2.125 C-329.48999023 -3.38671875 -329.48999023 -3.38671875 -327.62109375 -4.8125 C-326.58650024 -5.60575684 -326.58650024 -5.60575684 -325.53100586 -6.41503906 C-324.77827393 -6.97932617 -324.02554199 -7.54361328 -323.25 -8.125 C-322.47857666 -8.70733398 -321.70715332 -9.28966797 -320.91235352 -9.88964844 C-244.28003428 -67.24799258 -142.62106702 -78.77661648 0 0 Z " fill="#90A9D7" transform="translate(415.8125,62.125)"/>
<path d="M0 0 C0.74894531 0.70382813 1.49789063 1.40765625 2.26953125 2.1328125 C4.27299107 4.03949797 4.27299107 4.03949797 7.1875 5.875 C7.1875 6.535 7.1875 7.195 7.1875 7.875 C7.78425537 8.14344727 8.38101074 8.41189453 8.99584961 8.68847656 C11.20504031 9.88449604 12.54585855 11.0366429 14.25390625 12.859375 C14.81650146 13.45790283 15.37909668 14.05643066 15.95874023 14.6730957 C16.84541382 15.63928833 16.84541382 15.63928833 17.75 16.625 C18.36625244 17.29168701 18.98250488 17.95837402 19.61743164 18.64526367 C25.52068788 25.10812085 30.95028797 31.86625155 36.1875 38.875 C37.10208984 40.09509766 37.10208984 40.09509766 38.03515625 41.33984375 C58.43049931 69.54616926 72.47313692 101.97378893 80.0625 135.875 C80.26576904 136.76928711 80.46903809 137.66357422 80.6784668 138.58496094 C82.27642359 146.13944183 82.62332455 152.9765437 83.1875 160.875 C63.0575 160.875 42.9275 160.875 22.1875 160.875 C21.1975 154.605 20.2075 148.335 19.1875 141.875 C18.21412691 137.92975869 17.23297845 134.16117969 16 130.3125 C15.54826416 128.8728186 15.54826416 128.8728186 15.08740234 127.40405273 C-0.23894161 79.95693501 -34.16394419 40.52824694 -78.07177734 17.26806641 C-94.87191052 8.72882181 -112.06868808 3.25172964 -130.45825195 -0.59423828 C-133.92427431 -1.37564786 -137.36556964 -2.26326741 -140.8125 -3.125 C-140.8125 -21.605 -140.8125 -40.085 -140.8125 -59.125 C-157.3125 -59.125 -173.8125 -59.125 -190.8125 -59.125 C-190.8125 -40.645 -190.8125 -22.165 -190.8125 -3.125 C-199.7225 -1.145 -208.6325 0.835 -217.8125 2.875 C-238.47110524 9.29932236 -258.39293002 17.89375912 -275.8125 30.875 C-276.69059326 31.5242041 -276.69059326 31.5242041 -277.58642578 32.18652344 C-310.97236963 57.08729005 -335.09070259 90.50237293 -347.625 130.3125 C-347.9031958 131.18052246 -348.1813916 132.04854492 -348.46801758 132.94287109 C-351.25397199 142.25201515 -352.2564868 151.02024972 -353.8125 160.875 C-374.2725 160.875 -394.7325 160.875 -415.8125 160.875 C-411.54545833 113.93754165 -393.08052624 69.72379672 -363.8125 32.875 C-362.8383313 31.63375366 -362.8383313 31.63375366 -361.84448242 30.36743164 C-356.53969654 23.72622155 -350.87187291 17.62102967 -344.84399414 11.64575195 C-343.34468067 10.15740239 -341.85666656 8.65832494 -340.36914062 7.15820312 C-339.41470501 6.20508534 -338.45965122 5.25258607 -337.50390625 4.30078125 C-336.64998291 3.44911377 -335.79605957 2.59744629 -334.91625977 1.7199707 C-332.8125 -0.125 -332.8125 -0.125 -330.8125 -0.125 C-330.8125 -0.785 -330.8125 -1.445 -330.8125 -2.125 C-329.48999023 -3.38671875 -329.48999023 -3.38671875 -327.62109375 -4.8125 C-326.58650024 -5.60575684 -326.58650024 -5.60575684 -325.53100586 -6.41503906 C-324.77827393 -6.97932617 -324.02554199 -7.54361328 -323.25 -8.125 C-322.47857666 -8.70733398 -321.70715332 -9.28966797 -320.91235352 -9.88964844 C-244.28003428 -67.24799258 -142.62106702 -78.77661648 0 0 Z " fill="#1974C6" transform="translate(415.8125,62.125)"/>
<path d="M0 0 C20.13 0 40.26 0 61 0 C62.65 7.26 64.3 14.52 66 22 C77.53760998 61.93788069 98.8039122 98.27253471 132 124 C132.5352832 124.41556152 133.07056641 124.83112305 133.62207031 125.25927734 C149.07659554 137.09236905 165.90065782 145.96038737 184 153 C185.00289062 153.40863281 186.00578125 153.81726563 187.0390625 154.23828125 C192.37695202 156.32667005 197.81089061 157.78743804 203.375 159.125 C204.3642749 159.36331543 204.3642749 159.36331543 205.37353516 159.60644531 C211.8988734 161.10127804 218.3287161 161.97364863 225 163 C225 183.46 225 203.92 225 225 C215.97882939 225 215.97882939 225 212.21484375 224.3359375 C211.36656006 224.18672852 210.51827637 224.03751953 209.64428711 223.88378906 C208.30442749 223.63193848 208.30442749 223.63193848 206.9375 223.375 C205.98431885 223.19678711 205.0311377 223.01857422 204.04907227 222.83496094 C164.2481509 215.14352154 126.91452056 199.19818116 95 174 C94.17757812 173.36964844 93.35515625 172.73929688 92.5078125 172.08984375 C77.88583005 160.71459542 64.43926924 147.55012043 53 133 C52.22011719 132.03707031 51.44023438 131.07414063 50.63671875 130.08203125 C22.46998228 94.63776478 0 45.89077722 0 0 Z " fill="#1974C6" transform="translate(0,273)"/>
<path d="M0 0 C20.13 0 40.26 0 61 0 C57.44933013 26.03824573 57.44933013 26.03824573 55.375 34.8125 C55.12121582 35.88814209 54.86743164 36.96378418 54.60595703 38.07202148 C47.99232924 64.93572395 36.67705762 91.16466806 21 114 C20.36964844 114.92111572 20.36964844 114.92111572 19.7265625 115.86083984 C5.09879315 137.07664623 -12.42420652 157.32584238 -33 173 C-33.56831543 173.4340918 -34.13663086 173.86818359 -34.72216797 174.31542969 C-43.19164105 180.75141853 -51.83092378 186.5971947 -61 192 C-61.99257813 192.62132812 -62.98515625 193.24265625 -64.0078125 193.8828125 C-92.31283553 211.06055375 -130.52656009 225 -164 225 C-164 204.54 -164 184.08 -164 163 C-158.39 162.01 -152.78 161.02 -147 160 C-143.29311991 159.14229104 -139.65730056 158.26870176 -136 157.25 C-134.61445923 156.86593994 -134.61445923 156.86593994 -133.20092773 156.47412109 C-107.6399004 149.15710887 -83.93367111 135.53677611 -64 118 C-63.03964844 117.17242187 -62.07929688 116.34484375 -61.08984375 115.4921875 C-30.7336271 88.87393661 -11.61490254 52.03839696 -3 13 C-2.01 8.71 -1.02 4.42 0 0 Z " fill="#1974C6" transform="translate(439,273)"/>
<path d="M0 0 C1.00208496 -0.0038269 2.00416992 -0.00765381 3.03662109 -0.01159668 C5.15137743 -0.01431382 7.26616749 -0.00696657 9.38085938 0.00976562 C12.61404494 0.03117745 15.84500838 0.00995657 19.078125 -0.015625 C21.13542156 -0.01298169 23.19271674 -0.00785665 25.25 0 C26.21470215 -0.00809692 27.1794043 -0.01619385 28.17333984 -0.02453613 C32.18160003 0.03134243 34.96341083 0.20263744 38.5859375 2.00195312 C43.73332566 8.38688384 44.08015589 15.90175146 44.13671875 23.81640625 C44.15466995 24.75810165 44.17262115 25.69979706 44.19111633 26.67002869 C44.24481099 29.64455842 44.27898296 32.61893153 44.3125 35.59375 C44.34570919 37.62437057 44.38020213 39.65497057 44.41601562 41.68554688 C44.50051356 46.63400078 44.56751814 51.58241154 44.625 56.53125 C46.50819946 56.55312378 46.50819946 56.55312378 48.42944336 56.57543945 C53.12064024 56.633739 57.81137294 56.71096859 62.50219727 56.79370117 C64.52620874 56.82680228 66.55030924 56.85487957 68.57446289 56.87768555 C71.49663973 56.91150537 74.41801158 56.96383341 77.33984375 57.01953125 C78.23396469 57.02592117 79.12808563 57.0323111 80.04930115 57.03889465 C87.09692934 57.20106605 93.53415372 58.03947895 99.15429688 62.5703125 C101.34777742 66.98640348 101.1971166 71.03722804 101.15625 75.90625 C101.1600769 76.90833496 101.16390381 77.91041992 101.16784668 78.94287109 C101.17056382 81.05762743 101.16321657 83.17241749 101.14648438 85.28710938 C101.12507255 88.52029494 101.14629343 91.75125838 101.171875 94.984375 C101.16923169 97.04167156 101.16410665 99.09896674 101.15625 101.15625 C101.16434692 102.12095215 101.17244385 103.0856543 101.18078613 104.07958984 C101.12490757 108.08785003 100.95361256 110.86966083 99.15429688 114.4921875 C92.76936616 119.63957566 85.25449854 119.98640589 77.33984375 120.04296875 C75.92730064 120.06989555 75.92730064 120.06989555 74.48622131 120.09736633 C71.51169158 120.15106099 68.53731847 120.18523296 65.5625 120.21875 C63.53187943 120.25195919 61.50127943 120.28645213 59.47070312 120.32226562 C54.52224922 120.40676356 49.57383846 120.47376814 44.625 120.53125 C44.61041748 121.78671631 44.59583496 123.04218262 44.58081055 124.33569336 C44.522511 129.02689024 44.44528141 133.71762294 44.36254883 138.40844727 C44.32944772 140.43245874 44.30137043 142.45655924 44.27856445 144.48071289 C44.24474463 147.40288973 44.19241659 150.32426158 44.13671875 153.24609375 C44.13032883 154.14021469 44.1239389 155.03433563 44.11735535 155.95555115 C43.95518395 163.00317934 43.11677105 169.44040372 38.5859375 175.06054688 C34.16984652 177.25402742 30.11902196 177.1033666 25.25 177.0625 C24.24791504 177.0663269 23.24583008 177.07015381 22.21337891 177.07409668 C20.09862257 177.07681382 17.98383251 177.06946657 15.86914062 177.05273438 C12.63595506 177.03132255 9.40499162 177.05254343 6.171875 177.078125 C4.11457844 177.07548169 2.05728326 177.07035665 0 177.0625 C-0.96470215 177.07059692 -1.9294043 177.07869385 -2.92333984 177.08703613 C-6.93160003 177.03115757 -9.71341083 176.85986256 -13.3359375 175.06054688 C-18.48332566 168.67561616 -18.83015589 161.16074854 -18.88671875 153.24609375 C-18.90466995 152.30439835 -18.92262115 151.36270294 -18.94111633 150.39247131 C-18.99481099 147.41794158 -19.02898296 144.44356847 -19.0625 141.46875 C-19.09570919 139.43812943 -19.13020213 137.40752943 -19.16601562 135.37695312 C-19.25051356 130.42849922 -19.31751814 125.48008846 -19.375 120.53125 C-20.63046631 120.51666748 -21.88593262 120.50208496 -23.17944336 120.48706055 C-27.87064024 120.428761 -32.56137294 120.35153141 -37.25219727 120.26879883 C-39.27620874 120.23569772 -41.30030924 120.20762043 -43.32446289 120.18481445 C-46.24663973 120.15099463 -49.16801158 120.09866659 -52.08984375 120.04296875 C-52.98396469 120.03657883 -53.87808563 120.0301889 -54.79930115 120.02360535 C-61.84692934 119.86143395 -68.28415372 119.02302105 -73.90429688 114.4921875 C-76.09777742 110.07609652 -75.9471166 106.02527196 -75.90625 101.15625 C-75.9100769 100.15416504 -75.91390381 99.15208008 -75.91784668 98.11962891 C-75.92056382 96.00487257 -75.91321657 93.89008251 -75.89648438 91.77539062 C-75.87507255 88.54220506 -75.89629343 85.31124162 -75.921875 82.078125 C-75.91923169 80.02082844 -75.91410665 77.96353326 -75.90625 75.90625 C-75.91434692 74.94154785 -75.92244385 73.9768457 -75.93078613 72.98291016 C-75.87490757 68.97464997 -75.70361256 66.19283917 -73.90429688 62.5703125 C-67.51936616 57.42292434 -60.00449854 57.07609411 -52.08984375 57.01953125 C-50.67730064 56.99260445 -50.67730064 56.99260445 -49.23622131 56.96513367 C-46.26169158 56.91143901 -43.28731847 56.87726704 -40.3125 56.84375 C-38.28187943 56.81054081 -36.25127943 56.77604787 -34.22070312 56.74023438 C-29.27224922 56.65573644 -24.32383846 56.58873186 -19.375 56.53125 C-19.36041748 55.27578369 -19.34583496 54.02031738 -19.33081055 52.72680664 C-19.272511 48.03560976 -19.19528141 43.34487706 -19.11254883 38.65405273 C-19.07944772 36.63004126 -19.05137043 34.60594076 -19.02856445 32.58178711 C-18.99474463 29.65961027 -18.94241659 26.73823842 -18.88671875 23.81640625 C-18.88032883 22.92228531 -18.8739389 22.02816437 -18.86735535 21.10694885 C-18.70518395 14.05932066 -17.86677105 7.62209628 -13.3359375 2.00195312 C-8.91984652 -0.19152742 -4.86902196 -0.0408666 0 0 Z " fill="#DEE3F1" transform="translate(237.375,161.46875)"/>
<path d="M0 0 C0.10153917 7.43803225 0.17152433 14.8758853 0.21972656 22.31445312 C0.23982405 24.84414347 0.26710668 27.37378746 0.30175781 29.90332031 C0.35035556 33.54243417 0.37298812 37.180933 0.390625 40.8203125 C0.41127014 41.94865509 0.43191528 43.07699768 0.45318604 44.23953247 C0.45497104 50.50604021 0.03457984 53.94952572 -4 59 C-5.47967925 63.59985114 -5.17032098 68.55853296 -5.2109375 73.3515625 C-5.23898442 75.1901134 -5.2676487 77.02865497 -5.296875 78.8671875 C-5.33825912 81.75520782 -5.37516376 84.6430496 -5.40136719 87.53125 C-5.42889583 90.32588163 -5.47473777 93.11973054 -5.5234375 95.9140625 C-5.52669037 96.77971832 -5.52994324 97.64537415 -5.53329468 98.53726196 C-5.55814438 99.74399063 -5.55814438 99.74399063 -5.58349609 100.97509766 C-5.59158295 101.68171539 -5.5996698 102.38833313 -5.60800171 103.11636353 C-6.12714039 105.61093704 -6.9639896 106.49508038 -9 108 C-12.04623429 108.29587485 -14.89804753 108.41704174 -17.9453125 108.40625 C-18.82976044 108.41708618 -19.71420837 108.42792236 -20.62545776 108.43908691 C-23.45871211 108.47338593 -26.29156535 108.48893565 -29.125 108.5 C-32.83631855 108.51465665 -36.54675357 108.54857562 -40.2578125 108.59375 C-41.09877472 108.59072876 -41.93973694 108.58770752 -42.80618286 108.58459473 C-46.99746577 108.63688226 -50.39951341 109.01043594 -54.3293457 110.50708008 C-59.99285353 112.58060016 -65.50335903 112.37602308 -71.47265625 112.29296875 C-72.6363121 112.28872391 -73.79996796 112.28447906 -74.99888611 112.28010559 C-78.68700058 112.26341785 -82.37455286 112.22578319 -86.0625 112.1875 C-88.57486186 112.1724404 -91.08723235 112.15875424 -93.59960938 112.14648438 C-99.7332622 112.11354677 -105.86659092 112.06344658 -112 112 C-110.21155236 93.01637012 -102.39659054 75.79299158 -92 60 C-91.3090625 58.94554687 -90.618125 57.89109375 -89.90625 56.8046875 C-79.04859471 41.18568337 -64.91268476 28.28737731 -49 18 C-48.07960937 17.39414063 -47.15921875 16.78828125 -46.2109375 16.1640625 C-33.18089298 8.05240098 -15.57843677 -0.15541203 0 0 Z " fill="#1974C6" transform="translate(225,111)"/>
<path d="M0 0 C1.42910289 0.14935292 2.85792336 0.3014097 4.28662109 0.45458984 C5.08232513 0.53897308 5.87802917 0.62335632 6.69784546 0.71029663 C31.69774394 3.85628648 56.35644219 21.17249191 74 38 C74.53625 38.50635986 75.0725 39.01271973 75.625 39.53442383 C82.8457607 46.51907521 88.39266026 54.70382248 94 63 C94.43666992 63.64582031 94.87333984 64.29164063 95.32324219 64.95703125 C103.7857157 77.81944013 112.60976816 96.4746973 112 112 C104.61684838 112.07637444 97.23379954 112.12873584 89.8503418 112.16479492 C87.34118848 112.17983529 84.83206126 112.20027272 82.32299805 112.22631836 C78.70615175 112.26291014 75.08965458 112.27977448 71.47265625 112.29296875 C69.80336815 112.31619453 69.80336815 112.31619453 68.10035706 112.33988953 C62.23684509 112.34114246 57.63775352 111.76705984 52.16886902 109.6842804 C48.25910658 108.45074634 44.32502194 108.57913815 40.2578125 108.59375 C39.36762421 108.58291382 38.47743591 108.57207764 37.56027222 108.56091309 C33.78990524 108.51536875 30.01961655 108.50349341 26.24902344 108.48876953 C23.48086855 108.4731222 20.71329393 108.44016308 17.9453125 108.40625 C16.66565109 108.41078186 16.66565109 108.41078186 15.36013794 108.41540527 C9.4591255 108.34002943 9.4591255 108.34002943 7.27645874 106.72354126 C4.99395679 103.64158792 5.58066254 99.75019347 5.59375 96.0546875 C5.58291382 95.17023956 5.57207764 94.28579163 5.56091309 93.37454224 C5.52661407 90.54128789 5.51106435 87.70843465 5.5 84.875 C5.48534335 81.16368145 5.45142438 77.45324643 5.40625 73.7421875 C5.40927124 72.90122528 5.41229248 72.06026306 5.41540527 71.19381714 C5.33585244 64.81699184 4.70016905 57.70016905 0 53 C-0.24050903 50.74740601 -0.24050903 50.74740601 -0.22705078 47.90771484 C-0.22682419 46.31629166 -0.22682419 46.31629166 -0.22659302 44.69271851 C-0.21110916 42.96923691 -0.21110916 42.96923691 -0.1953125 41.2109375 C-0.1924826 40.03737701 -0.18965271 38.86381653 -0.18673706 37.6546936 C-0.17551355 33.89469338 -0.15040492 30.13492861 -0.125 26.375 C-0.11497301 23.8307326 -0.10584668 21.28646148 -0.09765625 18.7421875 C-0.07556714 12.4947109 -0.04206824 6.24737227 0 0 Z " fill="#1974C6" transform="translate(275,111)"/>
<path d="M0 0 C7.02901938 -0.12683815 14.0577434 -0.21436744 21.08764648 -0.2746582 C23.47870919 -0.29979315 25.86969514 -0.33390633 28.26049805 -0.37719727 C31.69859764 -0.43789061 35.13568096 -0.46622072 38.57421875 -0.48828125 C39.64210129 -0.51408768 40.70998383 -0.5398941 41.81022644 -0.56648254 C49.34284606 -0.5693254 49.34284606 -0.5693254 52.77661133 2.40551758 C53.87718872 3.68978638 53.87718872 3.68978638 55 5 C60.48712459 7.20659725 65.72570458 7.29395991 71.546875 7.30859375 C73.3789098 7.33372705 75.21094098 7.35912541 77.04296875 7.38476562 C79.90900938 7.41361838 82.77498771 7.43766248 85.64111328 7.45629883 C88.42250467 7.47788391 91.20321709 7.51728303 93.984375 7.55859375 C95.27344757 7.55876747 95.27344757 7.55876747 96.58856201 7.5589447 C97.7856076 7.57895287 97.7856076 7.57895287 99.00683594 7.59936523 C100.05771393 7.60697121 100.05771393 7.60697121 101.12982178 7.61473083 C103.61838036 8.12739047 104.49875928 8.97095968 106 11 C106.29587485 14.04623429 106.41704174 16.89804753 106.40625 19.9453125 C106.41708618 20.82976044 106.42792236 21.71420837 106.43908691 22.62545776 C106.47338593 25.45871211 106.48893565 28.29156535 106.5 31.125 C106.51465665 34.83631855 106.54857562 38.54675357 106.59375 42.2578125 C106.59072876 43.09877472 106.58770752 43.93973694 106.58459473 44.80618286 C106.66414756 51.18300816 107.29983095 58.29983095 112 63 C112.24050903 65.10073853 112.24050903 65.10073853 112.22705078 67.72509766 C112.22689972 68.70596344 112.22674866 69.68682922 112.22659302 70.69741821 C112.21627045 71.75891083 112.20594788 72.82040344 112.1953125 73.9140625 C112.1924826 74.99883881 112.18965271 76.08361511 112.18673706 77.20126343 C112.17551578 80.67595313 112.15040762 84.15038782 112.125 87.625 C112.11497272 89.97655879 112.10584643 92.3281216 112.09765625 94.6796875 C112.07557011 100.45321244 112.04207345 106.22658801 112 112 C110.09211501 111.69332151 108.18474204 111.38345665 106.27758789 111.07226562 C105.21536514 110.90005493 104.1531424 110.72784424 103.05873108 110.55041504 C70.64397623 104.71741825 41.2321351 82.15745636 22.53735352 55.79833984 C14.35169445 43.90082771 8.72686825 31.60451768 4 18 C3.67 17.11183594 3.34 16.22367187 3 15.30859375 C1.66128782 11.6078269 0.81918811 8.16933466 0.42578125 4.24609375 C0.34368408 3.44743896 0.26158691 2.64878418 0.17700195 1.82592773 C0.11859131 1.22337158 0.06018066 0.62081543 0 0 Z " fill="#1974C6" transform="translate(113,273)"/>
<path d="M0 0 C0.88158279 0.00888245 1.76316559 0.01776489 2.67146301 0.0269165 C3.67227402 0.02721863 4.67308502 0.02752075 5.70422363 0.02783203 C7.3215313 0.05879974 7.3215313 0.05879974 8.97151184 0.09039307 C10.62984795 0.09888275 10.62984795 0.09888275 12.32168579 0.10754395 C15.85774273 0.12996011 19.39279168 0.1801681 22.92854309 0.23101807 C25.32371076 0.2510762 27.7188943 0.26932816 30.11408997 0.28570557 C35.99008576 0.32984206 41.86549242 0.39680679 47.74104309 0.48101807 C47.4343646 2.38890305 47.12449975 4.29627602 46.81330872 6.20343018 C46.64109802 7.26565292 46.46888733 8.32787567 46.29145813 9.42228699 C40.61553046 40.96418746 18.19448975 70.82651218 -7.50895691 89.04351807 C-24.7602448 100.78009169 -43.393124 109.61953284 -64.25895691 112.48101807 C-64.33499119 105.5759791 -64.38755009 98.671048 -64.42375183 91.76568604 C-64.43884281 89.41636114 -64.45931783 87.06706443 -64.48527527 84.71783447 C-64.52164411 81.34194992 -64.53868029 77.9664377 -64.55192566 74.59039307 C-64.57515144 73.013638 -64.57515144 73.013638 -64.59884644 71.4050293 C-64.59907303 70.42431458 -64.59929962 69.44359985 -64.59953308 68.4331665 C-64.60619492 67.57156921 -64.61285675 66.70997192 -64.61972046 65.82226562 C-64.18001906 62.96873505 -63.07195583 61.68641089 -61.25895691 59.48101807 C-59.19168835 53.90090507 -58.96510236 48.79722184 -58.95036316 42.93414307 C-58.92522986 41.10210827 -58.8998315 39.27007709 -58.87419128 37.43804932 C-58.84533853 34.57200869 -58.82129443 31.70603036 -58.80265808 28.83990479 C-58.781073 26.0585134 -58.74167388 23.27780098 -58.70036316 20.49664307 C-58.70018944 19.2075705 -58.70018944 19.2075705 -58.70001221 17.89245605 C-58.68667343 17.09442566 -58.67333466 16.29639526 -58.65959167 15.47418213 C-58.65452103 14.7735968 -58.64945038 14.07301147 -58.64422607 13.35119629 C-58.13156644 10.86263771 -57.28799723 9.98225879 -55.25895691 8.48101807 C-52.21272262 8.18514322 -49.36090938 8.06397632 -46.31364441 8.07476807 C-44.9869725 8.05851379 -44.9869725 8.05851379 -43.63349915 8.04193115 C-40.8002448 8.00763214 -37.96739156 7.99208241 -35.13395691 7.98101807 C-31.42263836 7.96636142 -27.71220334 7.93244245 -24.00114441 7.88726807 C-23.16018219 7.89028931 -22.31921997 7.89331055 -21.45277405 7.89642334 C-15.79998612 7.82590309 -10.30946321 7.19832843 -5.25895691 4.48101807 C-4.78152542 3.79481384 -4.30409393 3.10860962 -3.81219482 2.40161133 C-2.25895691 0.48101807 -2.25895691 0.48101807 0 0 Z " fill="#1974C6" transform="translate(339.2589569091797,272.51898193359375)"/>
<path d="M0 0 C4.43847348 2.26811861 7.96047427 5.71507839 9.7734375 10.34375 C10.60602425 16.13534031 10.87855437 22.10714503 8.0859375 27.40625 C5.04715898 31.26632001 2.46188319 33.78093477 -2.2265625 35.34375 C-8.56067522 36.02828475 -14.4752716 36.55323681 -19.8515625 32.71875 C-25.02088412 27.9965638 -26.41240663 23.91684875 -26.7890625 16.96875 C-26.661482 11.38072426 -25.61626889 8.17704593 -22.02734375 3.9296875 C-15.68976691 -1.65177931 -8.07275352 -2.37933788 0 0 Z " fill="#1C75C6" transform="translate(258.2265625,232.65625)"/>
<path d="M0 0 C16.5 0 33 0 50 0 C50 4.29 50 8.58 50 13 C47.55871331 15.44128669 46.92919186 15.252187 43.58203125 15.25878906 C42.21050903 15.26824554 42.21050903 15.26824554 40.8112793 15.27789307 C39.32688354 15.27182037 39.32688354 15.27182037 37.8125 15.265625 C36.79905518 15.26753845 35.78561035 15.2694519 34.74145508 15.27142334 C32.59618888 15.27278591 30.45091447 15.26908447 28.30566406 15.26074219 C25.01348428 15.25004382 21.72185022 15.26063519 18.4296875 15.2734375 C16.34895712 15.27211592 14.26822709 15.26955355 12.1875 15.265625 C11.19790283 15.26967346 10.20830566 15.27372192 9.1887207 15.27789307 C8.27437256 15.27158875 7.36002441 15.26528442 6.41796875 15.25878906 C5.61125732 15.25719788 4.8045459 15.25560669 3.97338867 15.25396729 C2 15 2 15 0 13 C0 8.71 0 4.42 0 0 Z " fill="#E7EBF5" transform="translate(225,323)"/>
<path d="M0 0 C3.3 0 6.6 0 10 0 C13.375 4.5 13.375 4.5 13.34057617 8.67675781 C13.34034958 9.59741028 13.34012299 10.51806274 13.33988953 11.46661377 C13.32440567 12.45216248 13.30892181 13.43771118 13.29296875 14.453125 C13.28872391 15.46848328 13.28447906 16.48384155 13.28010559 17.52996826 C13.26332424 20.77024954 13.22567241 24.00990697 13.1875 27.25 C13.17245249 29.44790768 13.1587642 31.64582512 13.14648438 33.84375 C13.11342238 39.22940673 13.06164319 44.61459762 13 50 C8.71 50 4.42 50 0 50 C0 33.5 0 17 0 0 Z " fill="#E7EAF4" transform="translate(325,223)"/>
<path d="M0 0 C3.3 0 6.6 0 10 0 C10 16.5 10 33 10 50 C5.71 50 1.42 50 -3 50 C-3.07414761 43.52216092 -3.12860137 37.04456879 -3.16479492 30.56640625 C-3.17988291 28.36258644 -3.20035576 26.15879665 -3.22631836 23.95507812 C-3.26270058 20.78768503 -3.27972632 17.62068889 -3.29296875 14.453125 C-3.30845261 13.46757629 -3.32393646 12.48202759 -3.33988953 11.46661377 C-3.34011612 10.5459613 -3.34034271 9.62530884 -3.34057617 8.67675781 C-3.34723801 7.8684552 -3.35389984 7.06015259 -3.36076355 6.22735596 C-3 4 -3 4 0 0 Z " fill="#E7EAF4" transform="translate(165,223)"/>
<path d="M0 0 C1.37152222 -0.00945648 1.37152222 -0.00945648 2.77075195 -0.019104 C3.76034912 -0.01505554 4.74994629 -0.01100708 5.76953125 -0.00683594 C6.78297607 -0.00874939 7.7964209 -0.01066284 8.84057617 -0.01263428 C10.98584237 -0.01399685 13.13111678 -0.01029541 15.27636719 -0.00195312 C18.56854697 0.00874524 21.86018103 -0.00184613 25.15234375 -0.01464844 C27.23307413 -0.01332686 29.31380416 -0.01076449 31.39453125 -0.00683594 C32.38412842 -0.0108844 33.37372559 -0.01493286 34.39331055 -0.019104 C35.30765869 -0.01279968 36.22200684 -0.00649536 37.1640625 0 C38.37412964 0.00238678 38.37412964 0.00238678 39.60864258 0.00482178 C41.58203125 0.25878906 41.58203125 0.25878906 43.58203125 2.25878906 C43.58203125 5.22878906 43.58203125 8.19878906 43.58203125 11.25878906 C27.08203125 11.25878906 10.58203125 11.25878906 -6.41796875 11.25878906 C-6.41796875 0.01265903 -6.41796875 0.01265903 0 0 Z " fill="#E6EAF4" transform="translate(231.41796875,161.7412109375)"/>
<path d="M0 0 C0.33 0 0.66 0 1 0 C1 10.23 1 20.46 1 31 C-2.78054943 29.48778023 -4.91845233 28.52573562 -7.98828125 26.1796875 C-8.69404297 25.64472656 -9.39980469 25.10976563 -10.12695312 24.55859375 C-10.84818359 24.00300781 -11.56941406 23.44742187 -12.3125 22.875 C-13.05306641 22.31167969 -13.79363281 21.74835938 -14.55664062 21.16796875 C-16.37501609 19.78365711 -18.18924674 18.39425774 -20 17 C-18.60009391 13.64843625 -17.10447328 12.05926276 -14.12109375 10.01953125 C-13.36505859 9.49552734 -12.60902344 8.97152344 -11.83007812 8.43164062 C-11.04052734 7.89732422 -10.25097656 7.36300781 -9.4375 6.8125 C-7.8733076 5.73624414 -6.3094855 4.65944982 -4.74609375 3.58203125 C-3.70473267 2.87397339 -3.70473267 2.87397339 -2.64233398 2.15161133 C-1.04340714 1.10107045 -1.04340714 1.10107045 0 0 Z " fill="#2377C7" transform="translate(200,234)"/>
<path d="M0 0 C3.33260604 1.39771833 4.95439429 2.89598327 7.015625 5.84375 C7.54414063 6.59527344 8.07265625 7.34679687 8.6171875 8.12109375 C9.15601563 8.90613281 9.69484375 9.69117188 10.25 10.5 C10.80429687 11.28503906 11.35859375 12.07007813 11.9296875 12.87890625 C16 18.72371459 16 18.72371459 16 21 C6.1 21 -3.8 21 -14 21 C-12.48778023 17.21945057 -11.52573562 15.08154767 -9.1796875 12.01171875 C-8.64472656 11.30595703 -8.10976562 10.60019531 -7.55859375 9.87304688 C-7.00300781 9.15181641 -6.44742188 8.43058594 -5.875 7.6875 C-5.31167969 6.94693359 -4.74835938 6.20636719 -4.16796875 5.44335938 C-2.78365711 3.62498391 -1.39425774 1.81075326 0 0 Z " fill="#2277C7" transform="translate(249,180)"/>
<path d="M0 0 C9.9 0 19.8 0 30 0 C28.19899276 4.5025181 26.47513366 7.2794241 23.5625 11.0625 C22.78003906 12.08472656 21.99757813 13.10695313 21.19140625 14.16015625 C20.10666016 15.56587891 20.10666016 15.56587891 19 17 C17.99754491 18.33148848 16.99640803 19.66398023 16 21 C12.51425906 19.83808635 11.95814619 18.95073598 9.86328125 16.03515625 C9.28642578 15.23529297 8.70957031 14.43542969 8.11523438 13.61132812 C7.52033203 12.77021484 6.92542969 11.92910156 6.3125 11.0625 C5.70599609 10.22525391 5.09949219 9.38800781 4.47460938 8.52539062 C0 2.26899079 0 2.26899079 0 0 Z " fill="#2277C6" transform="translate(235,299)"/>
<path d="M0 0 C4.5025181 1.80100724 7.2794241 3.52486634 11.0625 6.4375 C12.08472656 7.21996094 13.10695313 8.00242188 14.16015625 8.80859375 C15.56587891 9.89333984 15.56587891 9.89333984 17 11 C18.33148848 12.00245509 19.66398023 13.00359197 21 14 C19.83808635 17.48574094 18.95073598 18.04185381 16.03515625 20.13671875 C15.23529297 20.71357422 14.43542969 21.29042969 13.61132812 21.88476562 C12.77021484 22.47966797 11.92910156 23.07457031 11.0625 23.6875 C10.22525391 24.29400391 9.38800781 24.90050781 8.52539062 25.52539062 C2.26899079 30 2.26899079 30 0 30 C0 20.1 0 10.2 0 0 Z " fill="#2277C6" transform="translate(299,235)"/>
</svg>
